<svg id="Ebene_1" data-name="Ebene 1" xmlns="http://www.w3.org/2000/svg" viewBox="0 0 256.96 70.04"><defs><style>.cls-1{fill:#fff;}</style></defs><title>Zeichenfläche 3</title><path class="cls-1" d="M256.48,51.1q.31-6.08.48-12.19c-.43-5.79-.08-12.08-.21-18.1-.1-2.56-.2-5.21-.29-7.82.07-1.8.11-3.64.12-5.49,0-2.4,0-4.81,0-7.18H206c-.3.09,5.69,0,7.33.07h-14.7c-14.66,0-29.39-.11-44.13-.12-3.57,0-7.94-.08-9.57-.11-6.33,0-3.74,0-8.37,0l-.63-.08C129.11.18,126,0,119.6.05c-.33,0-2.66,0-4.92,0-.12-.09-7,0-6.65-.08H108c-1.36,0-2.34,0-4,0C101.36,0,77,.29,74.41.33l-1.23,0C69.55.31,68,.38,70.12.4H61.69c-.83,0-1.75,0-.49-.09-2.52,0-5.36.05-7.89,0L68.12.46,59.5.49l-13-.1C45.09.4,44.14.5,41,.46,39.5.38,37.5.46,34.91.41c3,0,5.89,0,8.91,0C43.3.31,36.47.33,34.09.31c-1.12,0-7,0-10.61,0,1,0-.55-.06-2.38-.07L20,.28l1.09,0c-1,0-2,0-2.72,0-2.47,0-4,0-3,.05C15.23.36,3.56.49,5,.49c.78,0,.83,0,.67,0-.34,0-.52,0-.43,0-.36,0-.6,0,.49,0l1,0c1.88,0,2.83,0,3.16.05h-8l0,.83c-.6,2-.06,2.14-.61,3.91l.17,0C1.27,6.85,1.15,8.41,1,10c0,.13,0,.27,0,.4a65.65,65.65,0,0,0-.54,8.47s0,.07,0,.1Q.16,25,0,31.12c.42,5.8.08,12.08.2,18.11C.3,51.79.4,54.44.5,57,.42,58.85.39,60.69.38,62.53c0,2.41,0,4.82,0,7.19H51c.29-.08-5.7,0-7.33-.07h14.7c14.66,0,29.39.11,44.13.12,3.57,0,7.94.08,9.57.11,6.33,0,3.73,0,8.37,0l.62.09c6.77-.07,9.9.1,16.28.06.34,0,2.67,0,4.93,0,.11.1,7,0,6.65.08H149c1.37,0,2.34,0,4,0,2.59,0,26.91-.29,29.54-.33l1.23,0c3.64,0,5.19-.08,3.07-.09h8.43c.82,0,1.75,0,.48.1,2.53,0,5.37,0,7.89,0l-14.81-.13,8.63,0,13,.09c1.37,0,2.32-.11,5.44-.06,1.52.07,3.52,0,6.11,0-3,0-5.89,0-8.91,0,.52.08,7.35,0,9.74.08,1.12,0,6.94,0,10.61,0-1,.05.54.05,2.37.06h0l2.71,0c2.47,0,4.05,0,3.05,0,.17,0-.2,0-.85,0,5.84-.08,12.6-.16,11.17-.16-.78,0-.84,0-.67,0,.34,0,.51,0,.43,0,.35,0,.6,0-.5,0l-1,0c-1.89,0-2.83,0-3.16,0h8c0-.27,0-.55,0-.82.6-2,.06-2.14.6-3.92l-.16.06c.13-1.56.25-3.11.37-4.67,0-.13,0-.27.05-.4a69.59,69.59,0,0,0,.54-8.48l0-.09M8.4.48c-1.86,0,3.47,0,8.37-.06,2.08,0,6-.06,5.58,0l.64,0,1.52,0c-.92,0-2.54,0-4.22,0l1.12,0c-1.37,0-5.66,0-8.06,0,0,0,.87,0,.8.05-.77,0-1.85,0-2.93,0H9.56l-2.3,0c-.55,0,.29,0,1.14,0M251.14,69.55c-.54,0-1.73,0-2.58,0,1.85,0-3.07.08-8,.15-2.08,0-6.37,0-6-.07H234l-1.51,0,4.21,0-1.11,0c1.36,0,5.66,0,8.06,0,0,0-.87,0-.81-.06l2.93,0h4l1.45,0"/></svg>