<svg id="Ebene_1" data-name="Ebene 1" xmlns="http://www.w3.org/2000/svg" viewBox="0 0 518.48 124.47"><defs><style>.cls-1{fill:#fff;}</style></defs><title>Zeichenfläche 5</title><path class="cls-1" d="M517.53,90.81q.63-10.78,1-21.66c-.85-10.29-.15-21.46-.41-32.17-.19-4.55-.4-9.26-.59-13.89.15-3.2.22-6.47.25-9.76,0-4.27,0-8.55,0-12.77H415.55c-.58.15,11.5,0,14.8.12H400.69q-44.37-.1-89-.22c-7.21,0-16-.13-19.32-.18-12.77-.07-7.54.08-16.88.06L274.18.19c-13.66.13-20-.17-32.84-.11-.68.06-5.38.07-10,.07C231.16,0,217.31.16,218,0h-.13c-2.75,0-4.71,0-8.08,0-5.23.06-54.3.51-59.62.58l-2.47,0c-7.34,0-10.48.13-6.19.16h-17c-1.66,0-3.53-.09-1-.16-5.09,0-10.82.09-15.92.06,9.1.06,19.6.14,29.88.24L120.06.87,93.76.7c-2.78,0-4.69.19-11,.11C79.71.68,75.67.82,70.44.72c6-.06,11.89,0,18,0C87.38.54,73.6.59,68.78.55c-2.26,0-14,0-21.4,0,2.11-.09-1.1-.1-4.8-.12L40.32.5l2.19,0c-1.93,0-4,.06-5.49,0-5,0-8,0-5.94.09-.35,0-23.9.26-21,.27,1.57,0,1.68,0,1.34.06-.68,0-1,0-.86,0-.72,0-1.21.07,1,.08l2.05,0c3.81,0,5.71,0,6.39.09H3.8c0,.49,0,1-.08,1.46-1.2,3.51-.12,3.8-1.21,7l.33-.09c-.27,2.76-.52,5.53-.75,8.29L2,18.43A104,104,0,0,0,.9,33.49s0,.11,0,.17Q.32,44.45,0,55.32C.85,65.61.15,76.78.41,87.49c.2,4.55.4,9.25.6,13.89-.15,3.2-.23,6.47-.25,9.76,0,4.26,0,8.55,0,12.76H102.93c.58-.15-11.5,0-14.8-.13H117.8q44.37.12,89,.22c7.21.05,16,.14,19.31.19,12.77.07,7.54-.08,16.89-.06l1.26.16c13.66-.13,20,.17,32.85.11.68-.07,5.37-.07,9.94-.07.23.17,14.08,0,13.42.14h.13c2.75,0,4.71,0,8.09,0,5.23-.06,54.29-.51,59.61-.58l2.47,0c7.34,0,10.48-.12,6.2-.15h17c1.66,0,3.54.09,1,.16,5.09-.06,10.82-.09,15.92-.06-9.09-.06-19.6-.15-29.88-.24l17.39-.05,26.31.17c2.77,0,4.68-.2,11-.11,3.07.12,7.11,0,12.34.08-6,.07-11.89,0-18,0,1,.15,14.83.11,19.64.15,2.26,0,14,0,21.41,0-2.11.09,1.1.1,4.79.12l2.26,0L476,124c1.92,0,4,0,5.47,0,5,0,8.17,0,6.14-.09.36,0-.4-.06-1.71-.08,11.79-.13,25.42-.28,22.54-.28-1.58,0-1.69,0-1.35-.06.69,0,1,0,.86-.05.72,0,1.21-.06-1-.07l-2.05,0c-3.81,0-5.71,0-6.38-.09h5.95l10.23,0c0-.49,0-1,.07-1.46,1.2-3.51.12-3.81,1.22-7l-.34.1q.4-4.14.75-8.3l.09-.71A104,104,0,0,0,517.58,91l-.05-.17M16.94.86c-3.74,0,7,0,16.89-.11,4.2.05,12-.11,11.27,0l1.3,0,3.05,0c-1.84,0-5.12.05-8.51.06l2.25,0C40.44.7,31.77.72,26.94.73c-.05.06,1.75.06,1.61.09-1.55,0-3.74,0-5.91.06H19.3L14.65.9c-1.11,0,.58,0,2.29,0M506.76,123.6c-1.1,0-3.51,0-5.22,0,3.74,0-6.19.14-16.07.28-4.2,0-12.86-.06-12.09-.13l-1.29,0-3.06,0c1.85,0,5.12,0,8.51-.06l-2.25,0c2.75.06,11.42,0,16.26,0,0-.06-1.76-.07-1.62-.1l5.91,0h3.34l4.65,0,2.93,0"/></svg>