<svg id="Ebene_1" data-name="Ebene 1" xmlns="http://www.w3.org/2000/svg" viewBox="0 0 668.31 273.72"><defs><style>.cls-1{fill:#fff;}</style></defs><title>Zeichenfläche 1</title><path class="cls-1" d="M667.08,199.7q.81-23.72,1.23-47.62c-1.1-22.65-.2-47.21-.53-70.75-.26-10-.51-20.36-.77-30.55.19-7.05.29-14.24.32-21.46,0-9.39,0-18.81,0-28.08L594,1.26l-58.31,0c-.76.34,14.82,0,19.07.28l-38.24,0C478.34,1.36,440,1.09,401.7,1,392.41.94,381,.75,376.81.63,360.35.48,367.09.81,355,.76L353.41.42C335.8.7,327.66,0,311.08.18c-.88.14-6.94.15-12.82.14C298,0,280.11.35,281,0l-.17,0c-3.55,0-6.07,0-10.42,0-6.74.13-70,1.12-76.84,1.28l-3.19-.06c-9.46,0-13.5.28-8,.34l-11.67,0,1.35,0-11.6,0c-2.14,0-4.55-.2-1.26-.36-6.57.12-14,.19-20.53.13,11.73.14,25.27.32,38.52.53l-22.42.11c-10.37-.14-23.14-.26-33.9-.37-3.58,0-6,.42-14.15.24-4-.28-9.16,0-15.9-.19,7.74-.15,15.32-.08,23.18-.07-1.35-.32-19.12-.22-25.32-.31-2.92.1-18.07,0-27.59.09,2.71-.21-1.42-.23-6.19-.27L52,1.09,54.79,1c-2.49,0-5.14.14-7.07.09-6.42,0-10.27.1-7.66.21-.46.08-30.8.57-27.08.58,2,0,2.17.08,1.73.13-.88,0-1.34,0-1.11.1-.93.07-1.57.14,1.28.17l2.64-.08c4.91,0,7.36.08,8.23.18l-7.68,0L4.89,2.4,4.8,5.61C3.24,13.32,4.64,14,3.23,20.92l.44-.21q-.54,9.12-1,18.25c0,.52-.08,1-.11,1.56C1.72,52.19,1,63.42,1.16,73.65c0,.12,0,.25.07.37Q.41,97.74,0,121.65c1.1,22.64.2,47.2.53,70.74.25,10,.51,20.36.77,30.55C1.1,230,1,237.18,1,244.41c0,9.38,0,18.81,0,28.08l73.33,0,58.32,0c.75-.33-14.82,0-19.07-.28l38.24,0c38.13.16,76.44.44,114.77.48,9.29.1,20.65.3,24.89.42,16.46.14,9.72-.18,21.77-.14l1.63.35c17.61-.28,25.74.38,42.33.24.88-.14,6.93-.16,12.82-.15.3.36,18.15,0,17.3.31l.16,0c3.56,0,6.08,0,10.43,0,6.74-.12,70-1.12,76.84-1.27l3.19.06c9.45,0,13.5-.29,8-.35l11.66,0-1.34,0,11.59,0c2.14,0,4.56.21,1.27.37,6.57-.13,14-.2,20.52-.13-11.72-.15-25.26-.33-38.52-.54l22.43-.11c10.37.14,23.14.27,33.9.38,3.57,0,6-.43,14.15-.25,4,.28,9.16,0,15.9.19-7.75.15-15.32.08-23.18.07,1.35.33,19.12.22,25.32.32,2.91-.11,18.06,0,27.59-.09-2.72.21,1.42.23,6.18.27l2.92-.07-2.82.07c2.48,0,5.13,0,7.06.1,6.41,0,10.52-.09,7.91-.2.46-.07-.52-.13-2.21-.17,15.21-.29,32.77-.61,29.05-.61-2,0-2.17-.09-1.74-.14.89,0,1.35-.05,1.12-.1.93-.07,1.56-.14-1.28-.17l-2.64.09c-4.91,0-7.36-.08-8.23-.18l7.67,0,13.18,0c0-1.07.07-2.14.1-3.21,1.55-7.71.15-8.36,1.57-15.31l-.44.21q.52-9.12,1-18.24c0-.53.07-1.05.11-1.57.86-11.66,1.56-22.9,1.42-33.12,0-.13,0-.25-.07-.38M21.84,1.9c-4.83,0,9,0,21.77-.26,5.41.11,15.51-.22,14.52,0l1.67-.05,3.94.07c-2.38,0-6.6.11-11,.13l2.91-.08c-3.56-.13-14.72-.08-21-.06-.06.13,2.26.15,2.08.21-2,.05-4.82.09-7.62.12L26.53,2l-1.66,0C23,2,20.81,2,18.89,2c-1.43,0,.74-.1,2.95-.09M653.19,271.81c-1.41.05-4.51,0-6.72,0,4.82,0-8,.3-20.71.59-5.42-.11-16.58-.11-15.58-.28l-1.67.05-4-.08c2.38-.05,6.6-.11,11-.13l-2.9.08c3.55.13,14.72.08,21,.06.06-.13-2.27-.14-2.09-.21,2-.05,4.83-.09,7.63-.12l2.64,0,1.66,0,6-.07c1.43,0,2.71,0,3.77.08"/></svg>