<svg id="Ebene_1" data-name="Ebene 1" xmlns="http://www.w3.org/2000/svg" viewBox="0 0 385.88 70.04"><defs><style>.cls-1{fill:#fff;}</style></defs><title>Zeichenfläche 12</title><path class="cls-1" d="M385.17,51.1q.48-6.08.71-12.19c-.63-5.79-.12-12.08-.3-18.1-.15-2.56-.3-5.21-.45-7.82.11-1.8.17-3.64.19-5.49,0-2.4,0-4.81,0-7.18h-76c-.44.09,8.55,0,11,.07H298.21q-33-.06-66.27-.12C226.58.24,220,.19,217.57.16c-9.51,0-5.61,0-12.57,0l-.94-.08C193.89.18,189.19,0,179.62.05c-.51,0-4,0-7.41,0-.17-.09-10.48,0-10-.08h-.1c-2,0-3.51,0-6,0-3.89,0-40.41.29-44.37.33l-1.84,0c-5.46,0-7.79.07-4.6.09H92.64c-1.24,0-2.63,0-.73-.09-3.79,0-8.06.05-11.85,0L102.3.46l-13,0L69.78.39c-2.07,0-3.49.11-8.17.07-2.29-.08-5.29,0-9.18-.05,4.47,0,8.84,0,13.38,0C65,.31,54.77.33,51.19.31c-1.68,0-10.43,0-15.93,0,1.57,0-.82-.06-3.57-.07L30,.28l1.62,0c-1.43,0-3,0-4.08,0-3.7,0-5.93,0-4.42.05C22.87.36,5.35.49,7.49.49c1.17,0,1.26,0,1,0-.51,0-.77,0-.64,0-.53,0-.9,0,.74,0l1.53,0c2.83,0,4.24,0,4.75.05h-12c0,.28,0,.55,0,.83-.9,2-.09,2.14-.9,3.91l.25,0C1.91,6.85,1.73,8.41,1.55,10l-.06.4a44.6,44.6,0,0,0-.82,8.47l0,.1Q.23,25,0,31.12c.63,5.8.11,12.08.31,18.11C.45,51.79.6,54.44.75,57,.64,58.85.58,60.69.57,62.53c0,2.41,0,4.82,0,7.19h76c.44-.08-8.55,0-11-.07H87.67q33,.06,66.27.12c5.36,0,11.93.08,14.37.11,9.51,0,5.61,0,12.57,0l.94.09c10.17-.07,14.87.1,24.45.06.5,0,4,0,7.4,0,.17.1,10.48,0,10,.08h.1c2.05,0,3.51,0,6,0,3.89,0,40.41-.29,44.37-.33l1.84,0c5.46,0,7.8-.08,4.61-.09h12.65c1.24,0,2.63,0,.73.1,3.79,0,8.06,0,11.85,0l-22.24-.13,12.95,0,19.58.09c2.06,0,3.48-.11,8.16-.06,2.29.07,5.29,0,9.18,0-4.47,0-8.84,0-13.38,0,.78.08,11,0,14.62.08,1.68,0,10.43,0,15.93,0-1.57.05.82.05,3.57.06h.06l4.07,0c3.71,0,6.08,0,4.57,0,.26,0-.3,0-1.28,0,8.79-.08,18.92-.16,16.78-.16-1.17,0-1.26,0-1,0,.51,0,.77,0,.64,0,.54,0,.9,0-.74,0l-1.53,0c-2.83,0-4.24,0-4.75,0h12.05c0-.27,0-.55.05-.82.9-2,.09-2.14.91-3.92l-.25.06c.2-1.56.38-3.11.56-4.67l.06-.4a44.7,44.7,0,0,0,.82-8.48l0-.09M12.61.48c-2.79,0,5.22,0,12.57-.06,3.13,0,9-.06,8.38,0l1,0,2.27,0c-1.37,0-3.81,0-6.33,0l1.68,0c-2,0-8.5,0-12.1,0,0,0,1.3,0,1.2.05-1.15,0-2.78,0-4.4,0H14.36l-3.45,0c-.83,0,.42,0,1.7,0M377.15,69.55c-.81,0-2.6,0-3.88,0,2.79,0-4.61.08-12,.15-3.12,0-9.57,0-9-.07h-1l-2.28,0,6.34,0-1.68,0c2,0,8.5,0,12.1,0,0,0-1.3,0-1.2-.06l4.4,0H375l2.18,0"/></svg>