<svg id="Ebene_1" data-name="Ebene 1" xmlns="http://www.w3.org/2000/svg" xmlns:xlink="http://www.w3.org/1999/xlink" viewBox="0 0 385.88 70.04"><defs><style>.cls-1{fill:none;}.cls-2{clip-path:url(#clip-path);}.cls-3{fill:#fff;}.cls-4{fill:#0072bb;}</style><clipPath id="clip-path"><rect class="cls-1" width="385.88" height="70.04"/></clipPath></defs><title>Zeichenfläche 13</title><g class="cls-2"><path class="cls-3" d="M385.17,51.1q.48-6.08.71-12.19c-.63-5.79-.12-12.08-.3-18.1-.15-2.56-.3-5.21-.45-7.82.11-1.8.17-3.64.19-5.49,0-2.4,0-4.81,0-7.18h-76c-.44.09,8.55,0,11,.08H298.21q-33-.06-66.27-.12C226.58.24,220,.19,217.57.16c-9.51,0-5.61,0-12.57,0l-.94-.08C193.89.18,189.19,0,179.62.05c-.51,0-4,0-7.41,0-.17-.09-10.48,0-10-.07h-.1c-2,0-3.51,0-6,0-3.89,0-40.41.29-44.37.33l-1.84,0c-5.46,0-7.79.07-4.6.09H92.64c-1.24,0-2.63,0-.73-.09-3.79,0-8.06.05-11.85,0L102.3.46l-13,0L69.78.39c-2.07,0-3.49.11-8.17.07-2.29-.07-5.29,0-9.18-.05,4.47,0,8.84,0,13.38,0C65,.31,54.77.33,51.19.31c-1.68,0-10.43,0-15.93,0,1.57,0-.82-.06-3.57-.07L30,.28l1.62,0c-1.43,0-3,0-4.08,0-3.7,0-5.93,0-4.42.05C22.87.36,5.35.49,7.49.49c1.17,0,1.26,0,1,0-.52,0-.78,0-.65,0-.54,0-.9,0,.74,0l1.53,0c2.83,0,4.24,0,4.75.05h-12c0,.27,0,.54,0,.82-.9,2-.09,2.14-.9,3.91l.25,0C1.91,6.86,1.73,8.41,1.55,10l-.06.4a44.6,44.6,0,0,0-.82,8.47,1,1,0,0,0,0,.1C.39,23,.16,27,0,31.13c.63,5.79.11,12.07.31,18.1C.45,51.79.6,54.44.75,57c-.11,1.81-.17,3.65-.19,5.5,0,2.4,0,4.81,0,7.18h76c.44-.08-8.55,0-11-.07H87.67q33,.06,66.27.12c5.36,0,11.93.08,14.37.11,9.51,0,5.61,0,12.57,0l.94.09c10.17-.07,14.87.1,24.45.06.5,0,4,0,7.4,0,.17.1,10.48,0,10,.08h.1c2.05,0,3.51,0,6,0,3.89,0,40.41-.29,44.37-.33l1.84,0c5.46,0,7.8-.08,4.61-.09h12.65c1.24,0,2.63.06.73.1,3.79,0,8.06,0,11.85,0l-22.24-.13,12.95,0,19.58.09c2.06,0,3.48-.1,8.16-.06,2.29.07,5.29,0,9.18,0-4.47,0-8.84,0-13.38,0,.78.08,11,0,14.62.08,1.68,0,10.43,0,15.93,0-1.57.05.82.05,3.57.06h1.68l-1.62,0,4.07,0c3.71,0,6.08,0,4.57,0,.26,0-.3,0-1.28,0,8.79-.08,18.92-.16,16.78-.16-1.17,0-1.26,0-1,0,.51,0,.77,0,.64,0,.54,0,.9,0-.74,0l-1.53,0c-2.83,0-4.24,0-4.75,0h12.05c0-.27,0-.54.05-.82.9-2,.09-2.14.91-3.92l-.25.06c.2-1.56.38-3.11.56-4.67l.06-.4a44.7,44.7,0,0,0,.82-8.48l0-.09M12.61.49c-2.79,0,5.22,0,12.57-.07,3.13,0,9-.06,8.38,0l1,0,2.27,0c-1.37,0-3.81,0-6.33,0l1.68,0c-2,0-8.5,0-12.1,0,0,0,1.3,0,1.2.05-1.15,0-2.78,0-4.4,0H14.36l-3.45,0c-.83,0,.42,0,1.7,0M377.15,69.55c-.81,0-2.6,0-3.88,0,2.79,0-4.61.08-12,.15-3.12,0-9.57,0-9-.07h-3.25c1.38,0,3.82,0,6.34,0l-1.68,0c2,0,8.5,0,12.1,0,0,0-1.3,0-1.2-.06l4.4,0H375l2.18,0"/><path class="cls-4" d="M379.8,48.79c.31-3.46.53-6.94.69-10.44-.62-5-.11-10.34-.3-15.5-.14-2.2-.28-4.47-.42-6.7.1-1.55.16-3.12.17-4.71,0-2,0-4.12,0-6.15H306c-.43.07,8.31,0,10.7.06H295.27q-32.1,0-64.42-.1l-14-.09c-9.24,0-5.45,0-12.22,0l-.91-.07C193.86,5.17,189.3,5,180,5.06c-.5,0-3.89,0-7.2,0-.17-.08-10.18,0-9.71-.07h-5.94c-3.78,0-39.28.24-43.13.28h-1.79c-5.31,0-7.58.06-4.48.07H95.44c-1.2,0-2.56,0-.71-.08-3.68,0-7.83,0-11.52,0l21.62.11-12.58,0-19-.08c-2,0-3.39.09-7.94,0-2.23-.06-5.14,0-8.93,0,4.35,0,8.6,0,13,0-.76-.07-10.73,0-14.21-.07-1.63,0-10.14,0-15.48,0,1.52,0-.8,0-3.48-.06l-1.63,0,1.58,0c-1.4,0-2.88,0-4,0-3.6,0-5.76,0-4.3,0-.25,0-17.28.12-15.2.13,1.14,0,1.22,0,1,0-.5,0-.76,0-.63,0-.52,0-.88,0,.72,0l1.48,0c2.76,0,4.13,0,4.62,0H8.14l-.06.7C7.21,7.94,8,8.08,7.2,9.6l.25,0c-.2,1.33-.38,2.66-.55,4l-.06.34A33.5,33.5,0,0,0,6,21.16a.59.59,0,0,0,0,.08c-.31,3.47-.53,7-.69,10.44.62,5,.11,10.35.3,15.51.14,2.2.28,4.46.43,6.7C6,55.43,6,57,5.94,58.59c0,2.06,0,4.13,0,6.16H79.85c.43-.07-8.31,0-10.7-.06H90.61q32.1.06,64.42.11c5.21,0,11.59.06,14,.09,9.24,0,5.45,0,12.22,0l.91.08c9.89-.06,14.45.08,23.76,0,.5,0,3.89,0,7.2,0,.17.08,10.18,0,9.7.06h.1c2,0,3.41,0,5.85,0l43.13-.28h1.79c5.31,0,7.58-.06,4.48-.07h12.3c1.2,0,2.56,0,.71.08,3.68,0,7.83,0,11.52,0l-21.62-.12,12.58,0,19,.08c2,0,3.39-.09,7.94-.05,2.23.06,5.14,0,8.93,0-4.35,0-8.6,0-13,0,.75.08,10.73,0,14.21.07,1.63,0,10.14,0,15.49,0-1.53,0,.79,0,3.47.06h.05c1.39,0,2.88,0,4,0,3.6,0,5.91,0,4.44,0a6.1,6.1,0,0,0-1.24,0c8.54-.07,18.39-.14,16.31-.14-1.14,0-1.22,0-1,0,.5,0,.76,0,.63,0,.52,0,.87,0-.72,0l-1.48,0c-2.76,0-4.13,0-4.62,0h11.71c0-.23,0-.47.05-.7.87-1.69.08-1.84.88-3.36l-.24,0c.19-1.33.37-2.67.54-4a3.4,3.4,0,0,1,.07-.34,34.12,34.12,0,0,0,.79-7.27.2.2,0,0,1,0-.08M17.64,5.43c-2.7,0,5.08,0,12.23,0,3,0,8.7,0,8.15,0h3.15c-1.34,0-3.71,0-6.16,0l1.63,0c-2,0-8.26,0-11.76,0,0,0,1.27,0,1.17,0l-4.28,0H16c-.8,0,.42,0,1.65,0M372,64.6c-.8,0-2.54,0-3.78,0,2.71,0-4.47.07-11.62.13-3,0-9.3,0-8.75-.06h-3.15c1.34,0,3.71,0,6.16,0h-1.63c2,0,8.26,0,11.76,0,0,0-1.27,0-1.17,0l4.28,0h2.42l3.36,0,2.12,0"/></g></svg>