<svg id="Ebene_1" data-name="Ebene 1" xmlns="http://www.w3.org/2000/svg" viewBox="0 0 518.48 124.47"><defs><style>.cls-1{fill:#fff;}.cls-2{fill:#0072bb;}</style></defs><title>Zeichenfläche 6</title><path class="cls-1" d="M517.53,90.81q.63-10.78,1-21.66c-.85-10.29-.15-21.46-.41-32.17-.19-4.55-.4-9.26-.59-13.89.15-3.2.22-6.47.25-9.76,0-4.27,0-8.55,0-12.77H415.55c-.58.15,11.5,0,14.8.12H400.69q-44.37-.1-89-.22c-7.21,0-16-.13-19.32-.18-12.77-.07-7.54.08-16.88.06L274.18.19c-13.66.13-20-.17-32.84-.11-.68.06-5.38.07-10,.07C231.16,0,217.31.16,218,0h-.13c-2.75,0-4.71,0-8.08,0-5.23.06-54.3.51-59.62.58l-2.47,0c-7.34,0-10.48.13-6.19.16h-17c-1.66,0-3.53-.09-1-.16-5.09,0-10.82.09-15.92.06,9.1.06,19.6.14,29.88.24L120.06.87,93.76.7c-2.78,0-4.69.19-11,.11C79.71.68,75.67.82,70.44.72c6-.06,11.89,0,18,0C87.38.54,73.6.59,68.78.55c-2.26,0-14,0-21.4,0,2.11-.09-1.1-.1-4.8-.12L40.32.5l2.19,0c-1.93,0-4,.06-5.49,0-5,0-8,0-5.94.09-.35,0-23.9.26-21,.27,1.57,0,1.68,0,1.34.06-.68,0-1,0-.86,0-.72,0-1.21.07,1,.08l2.05,0c3.81,0,5.71,0,6.39.09H3.8c0,.49,0,1-.08,1.46-1.2,3.51-.12,3.8-1.21,7l.33-.09c-.27,2.76-.52,5.53-.75,8.29L2,18.43A104,104,0,0,0,.9,33.49s0,.11,0,.17Q.32,44.45,0,55.32C.85,65.61.15,76.78.41,87.49c.2,4.55.4,9.25.6,13.89-.15,3.2-.23,6.47-.25,9.76,0,4.26,0,8.55,0,12.76H102.93c.58-.15-11.5,0-14.8-.13H117.8q44.37.12,89,.22c7.21.05,16,.14,19.31.19,12.77.07,7.54-.08,16.89-.06l1.26.16c13.66-.13,20,.17,32.85.11.68-.07,5.37-.07,9.94-.07.23.17,14.08,0,13.42.14h.13c2.75,0,4.71,0,8.09,0,5.23-.06,54.29-.51,59.61-.58l2.47,0c7.34,0,10.48-.12,6.2-.15h17c1.66,0,3.54.09,1,.16,5.09-.06,10.82-.09,15.92-.06-9.09-.06-19.6-.15-29.88-.24l17.39-.05,26.31.17c2.77,0,4.68-.2,11-.11,3.07.12,7.11,0,12.34.08-6,.07-11.89,0-18,0,1,.15,14.83.11,19.64.15,2.26,0,14,0,21.41,0-2.11.09,1.1.1,4.79.12l2.26,0L476,124c1.92,0,4,0,5.47,0,5,0,8.17,0,6.14-.09.36,0-.4-.06-1.71-.08,11.79-.13,25.42-.28,22.54-.28-1.58,0-1.69,0-1.35-.06.69,0,1,0,.86-.05.72,0,1.21-.06-1-.07l-2.05,0c-3.81,0-5.71,0-6.38-.09h5.95l10.23,0c0-.49,0-1,.07-1.46,1.2-3.51.12-3.81,1.22-7l-.34.1q.4-4.14.75-8.3l.09-.71A104,104,0,0,0,517.58,91l-.05-.17M16.94.86c-3.74,0,7,0,16.89-.11,4.2.05,12-.11,11.27,0l1.3,0,3.05,0c-1.84,0-5.12.05-8.51.06l2.25,0C40.44.7,31.77.72,26.94.73c-.05.06,1.75.06,1.61.09-1.55,0-3.74,0-5.91.06H19.3L14.65.9c-1.11,0,.58,0,2.29,0M506.76,123.6c-1.1,0-3.51,0-5.22,0,3.74,0-6.19.14-16.07.28-4.2,0-12.86-.06-12.09-.13l-1.29,0-3.06,0c1.85,0,5.12,0,8.51-.06l-2.25,0c2.75.06,11.42,0,16.26,0,0-.06-1.76-.07-1.62-.1l5.91,0h3.34l4.65,0,2.93,0"/><path class="cls-2" d="M510.32,88q.62-9.7.92-19.49c-.83-9.27-.15-19.31-.4-28.95-.19-4.1-.38-8.33-.57-12.5.14-2.88.21-5.82.24-8.78,0-3.84,0-7.7,0-11.49h-55.3l-44,0c-.57.14,11.17,0,14.38.12H396.74q-43.14-.11-86.56-.2c-7,0-15.58-.12-18.77-.17-12.42-.06-7.33.08-16.42,0l-1.23-.14c-13.28.12-19.41-.15-31.92-.09-.66.05-5.23.06-9.67.06-.23-.15-13.69,0-13-.13H219c-2.68,0-4.58,0-7.86,0-5.09.06-52.78.46-57.95.53l-2.4,0c-7.14,0-10.19.12-6,.14H128.24c-1.62,0-3.44-.09-1-.15-5,0-10.53.08-15.48,0L140.86,7,124,7c-7.82-.06-17.46-.11-25.57-.16-2.7,0-4.56.18-10.67.1-3-.11-6.91,0-12-.07,5.84-.07,11.55,0,17.48,0-1-.14-14.42-.09-19.1-.13-2.19,0-13.62,0-20.8,0,2-.08-1.08-.09-4.67-.11l-2.2,0,2.13,0c-1.88,0-3.88.07-5.33,0-4.84,0-7.75,0-5.78.09C37.11,6.81,14.22,7,17,7c1.52,0,1.63,0,1.31.06-.67,0-1,0-.84,0-.7,0-1.18.06,1,.07l2,0c3.71,0,5.55,0,6.21.07H10.93c0,.43,0,.87-.07,1.31C9.69,11.69,10.74,12,9.68,14.8l.33-.09c-.27,2.49-.51,5-.74,7.46l-.09.65A87.68,87.68,0,0,0,8.12,36.37l.05.15Q7.56,46.23,7.24,56c.83,9.26.15,19.31.4,28.95.19,4.1.39,8.33.58,12.5-.15,2.88-.22,5.82-.24,8.78,0,3.84,0,7.7,0,11.49h99.28c.57-.13-11.17,0-14.38-.11h28.84q43.14.11,86.55.2c7,0,15.58.12,18.78.17,12.41.06,7.32-.08,16.41-.06l1.23.14c13.28-.11,19.42.16,31.93.1.66-.06,5.22-.06,9.66-.06.23.15,13.69,0,13.05.13h.12c2.68,0,4.59,0,7.86,0,5.09,0,52.79-.45,58-.52l2.41,0c7.13,0,10.18-.12,6-.15h16.52c1.62,0,3.44.08,1,.15,4.95,0,10.52-.08,15.48,0l-29.05-.22,16.91,0c7.82.06,17.45.11,25.57.16,2.69,0,4.55-.18,10.67-.11,3,.12,6.9,0,12,.08-5.85.06-11.56,0-17.48,0,1,.14,14.41.09,19.09.13,2.2,0,13.62,0,20.81,0-2.05.09,1.07.1,4.66.11l2.2,0-2.13,0c1.88,0,3.87,0,5.32,0,4.84,0,7.94,0,6-.08.35,0-.38-.06-1.66-.07,11.47-.13,24.71-.25,21.91-.26-1.53,0-1.64,0-1.31,0,.66,0,1,0,.84,0,.7,0,1.17-.06-1-.07l-2,0c-3.71,0-5.55,0-6.21-.07h15.73c0-.44.05-.87.07-1.31,1.17-3.16.12-3.42,1.19-6.27l-.33.09q.39-3.74.73-7.47l.09-.64a89.1,89.1,0,0,0,1.07-13.55.88.88,0,0,1-.05-.15M23.71,7c-3.64,0,6.82,0,16.42-.1,4.08,0,11.7-.1,10.95,0l1.26,0,3,0c-1.79,0-5,.05-8.27.06l2.19,0c-2.68,0-11.1,0-15.8,0,0,.05,1.7.06,1.57.08-1.51,0-3.64,0-5.75,0H26l-4.51,0c-1.09,0,.56,0,2.22,0M499.84,117.45c-1.06,0-3.4,0-5.07,0,3.64,0-6,.12-15.62.24-4.08,0-12.5,0-11.75-.12l-1.26,0-3,0c1.79,0,5,0,8.27-.06l-2.19,0c2.68,0,11.1,0,15.81,0,0,0-1.71-.06-1.57-.09l5.74,0h3.25c1.45,0,3.07,0,4.52,0,1.08,0,2,0,2.84,0"/></svg>