<?xml version="1.0" encoding="UTF-8" standalone="no"?>
<svg
   xmlns:dc="http://purl.org/dc/elements/1.1/"
   xmlns:cc="http://creativecommons.org/ns#"
   xmlns:rdf="http://www.w3.org/1999/02/22-rdf-syntax-ns#"
   xmlns:svg="http://www.w3.org/2000/svg"
   xmlns="http://www.w3.org/2000/svg"
   xmlns:sodipodi="http://sodipodi.sourceforge.net/DTD/sodipodi-0.dtd"
   xmlns:inkscape="http://www.inkscape.org/namespaces/inkscape"
   id="Ebene_1"
   data-name="Ebene 1"
   viewBox="0 0 17.82 72.94"
   version="1.1"
   sodipodi:docname="icon_attention.svg"
   inkscape:version="0.92.4 5da689c313, 2019-01-14">
  <metadata
     id="metadata907">
    <rdf:RDF>
      <cc:Work
         rdf:about="">
        <dc:format>image/svg+xml</dc:format>
        <dc:type
           rdf:resource="http://purl.org/dc/dcmitype/StillImage" />
      </cc:Work>
    </rdf:RDF>
  </metadata>
  <sodipodi:namedview
     pagecolor="#ffffff"
     bordercolor="#666666"
     borderopacity="1"
     objecttolerance="10"
     gridtolerance="10"
     guidetolerance="10"
     inkscape:pageopacity="0"
     inkscape:pageshadow="2"
     inkscape:window-width="1596"
     inkscape:window-height="861"
     id="namedview905"
     showgrid="false"
     inkscape:zoom="9.1856317"
     inkscape:cx="8.9099998"
     inkscape:cy="36.470001"
     inkscape:window-x="0"
     inkscape:window-y="18"
     inkscape:window-maximized="0"
     inkscape:current-layer="Ebene_1" />
  <defs
     id="defs898">
    <style
       id="style896">.cls-1{fill:#00a7d7;}</style>
  </defs>
  <title
     id="title900">14_Ausrufezeichen</title>
  <path
     class="cls-1"
     d="M13.11,4.68l.16.79L13.2,7.08l.2,2.49-.09.21.11,1.4-.08.21.3,3.78-.09.21.08,1-.15.61.23,2.89.11.19-.25.63.11,1.39-.08.21.1,1.3-.09.2.22,2.79-.17.32.23.38.11,1.4-.14.81.13.39-.13.91L14,32.4l-.08.21.14,1.79.11.19-.12,1,.13,1.69-.08.21.14,1.79.12.19.11,1.4-.21,2.42.24,1.79-.21,1.22.27,3.39-.31,1.23-1.05.68-.59.15-4,.31-1.74-.36-.67-.95-.15-.59-.24-3.09-.38-1-.27-3.39-.11-.19-.33-4.09-.11-.19-.14-1.79-.12-.19-.15-2-.12-.19L4,32.89l-.38-1-.21-2.69.23-.82-.59-1.16.26-.52-.37-.87-.27-3.49-.25-.59-.19-1.18.08-.21-.13-1.7-.12-.19L1.88,16.2l-.35-.58L1.39,15l.17-1.61-.42-1.58.16-.51-.44-.47L1.09,10,.79,8.66l.08-.21L.81,7.66.46,7.08.18,3.49.06,3.3,0,2.5l.14-.81L.5,1.26,1.18.91l1-.28L5,.41l.61.15L7.25.33l.21.08L7.94.17l1.31.1L10.14,0l.62.25L11.24,0l.81.14.43.27.13.39.21.18H13l.19,2.39L13,4.49ZM3.37,22.4l0,.2.3.08.08-.31-.31-.18Zm.51-6.26.19-.21-.21-.09Zm.43-2.24L3.92,14v.2l.49-.14Zm.2,15.33-.21-.18-.08.31ZM4.69,34l-.11-.1-.18.32.31.07ZM4.64,4,4.53,4l-.09.21Zm.11,32.1.07-.41-.2,0-.17.31.11.19ZM4.62,22.9,5,23l.19-.21-.42-.17-.29.12Zm.24,1.79-.2,0v.2l.21.08.18-.21ZM4.8,13.76l.11.19-.14-.59Zm0,19.06.41.07,0-.2-.4-.07Zm.29-5.24v-.2l-.2,0v.2Zm.54-3.35-.43-.37-.2,0-.08.21.83.33ZM5,23.38l.11.09.09-.2-.21-.09Zm1-7.5,0-.3-.4-.07L5,16.06l.8,0Zm-.77.46L5,16.55l0,.91.2,0,.17-.31,0-.81Zm.18-1.52.08-.31-.31-.07,0,.4ZM17.22,63.24l.19,2.4.11.09.18,2.39-.14.71.26,2-.15.71-.46.54-.7.06-.1-.1.07-.4-.12-.19-.18.21-.06.61-.79.06-.2.12-3.29.25-1.61-.07-1.48.32-1.81-.16-.65-.55-.06-.8.08-.21L6.22,70l-.12-.19-.24-1.79L6,67.64l-.15-1.9-.24-.48-.09-2.4-.11-.19-.13-1.6.33-.93.46-.54.78-.26,2.49-.19.62.15.78-.26,3-.24.21.08,1.89-.14.63.35.22.28.49,2.37.42.27-.33.83ZM5.37,35.08l0,.2.19-.11Zm1.76-8.26.32.28,0-.6L7.77,26l1-.38.37-.33L9,25l-.82-.24,0-.4-1,1-.31-.18-1.32-.2v.2l.33.28.81.14.22.28L6,26.91Zm-1.6-5.09.51.16-.13-.39-.4,0Zm.2,16.64-.21-.09,0,.2.21.19ZM7.11,8.67l-.63-.26-.11-.19L5.75,8v.2l.76.74.17.79.81.14.39-.13,0-.81L7.6,8.53l-.39.23ZM6.31,10,6,10.25l-.24.83L7,10.58l-.33-.37,0-.2Zm-.47,8.06.32.18L6,17.88H5.83ZM5.92,37l.23.38.3,0-.13-.39-.44-.47Zm0-8.93.29-.12-.31-.08Zm1-9.81.2-.12.06-.4L7,17.4l-.62-.25L6,17.28v.2l.42.17,0,.5.3.07Zm-.48,4.05-.29.12L6,22.9l.35.67.45-.74-.24-.48Zm0-9.33-.37.43.21.09.29-.13.07-.4Zm-.3,12.76v.2l.19-.21-.11-.09Zm.43-9.76-.1-.09-.2.11.33.28Zm.83-3.58L7,12l-.61-.06-.08.31.73.34.4,0ZM6.56,36.09l.18-.21,0-.2-.21-.18-.15.61ZM6.48,39l.12.19h.2L6.88,39l-.21-.19-.2,0ZM6.62,6.3l.12.29.09-.21-.12-.19Zm.23,10.61v-.2l-.2,0,0,.3Zm0-5.31L7,11.38l-.29.12Zm.44,10.6L7.05,22,7,22.22l.11.19.2,0Zm-.1,8.93L7.06,31,7,31.25Zm.06,2,.4.07-.23-.38L7,32.75ZM7.15,19.4v.2l.3,0v-.2l-.22-.18ZM8.6,16.17l-.21-.08-.05-.6-.21-.18-.41-.07-.39.13-.17.31.6,1.26.85-.57ZM7.43,8.94l.11.19-.08.21L7.23,9ZM8,30.06l-.72-.14,0,.2.32.27.31.08.27-.32Zm-.67-9.77.2,0,0-.2-.2,0ZM7.63,37l-.11-.19-.2.12.33.27Zm.16-29.8L7.58,7l-.2,0v.2l.42.17ZM7.7,27.68l.47-.44-.7.05,0,.4ZM7.91,39.3l.39-.13-.23-.39-.3,0-.27.32Zm0-23.47-.21-.09L8,15.52Zm.18,7.41-.37.43.13.29.42.27.81.13.33.28.59-.15.23.38.2.09-.28-1.08L9.8,23.8l-.32-.27-.38.23-.71-.05-.14-.49ZM7.88,36.39l.33.28.3,0,0-.3L8.25,36l-.31-.08-.17.32Zm.34,31.07-.11-.19-.2,0,0,.4.3,0Zm0-55.78-.2.12L8,12.11l.38-.23.09-.21Zm-.06,6.93.28-.22-.14-.49L8,17.72l0,.91Zm1,14.67.06-.6-.53-.26-.29,0L8,32.77l0,.5.39-.13L9,33.6Zm-.81,7.49.18-.22v-.19l-.31-.08-.07.41ZM8.14,9.09l.51.06L8.53,9l-.4-.06Zm.66,17.3v-.1l-.49.14ZM8.53,14l.18-.21-.21-.09-.18.22Zm.84,23.51-.89.17.43.27.55.65-.28.33.33.27L9.79,39l.5-1.34-.72-.25Zm-.2-17.84L9.23,19l-.32-.17-.18.21.06.8.22.28L9.4,20ZM9,39.92l.41.07.18-.22-.82-.24ZM9,13.23,8.85,13l0,.3Zm-.09-5,.3,0L9.06,8l-.2,0ZM9.67,20.9l-.74-.54,0,.6.83.34Zm-.55,2L9,22.76,8.93,23ZM9.05,10.42l.21.18h.2l.09-.21L9,10.22Zm.21,7.81.39-.13.18-.32L9.77,17l-.59.25ZM9.32,41.9l.31.07.16-.41-.19.11-.3-.07Zm.26-29.82.05-.6-.28.22,0,.5Zm0,1.21-.2.11,0,.2.3,0,.27-.33Zm-.08,22,.39-.13-.22-.28Zm.23-9.85.11.19.41.07.38-.23,0-.3-1,0,0,.2Zm-.07,2.92.31.17.19-.11-.11-.19L9.63,28Zm.24.58-.1-.09-.09.2Zm.48,3.57.18-.31-.36-.78-.32-.17L9.75,32l.14.49Zm-.3-23-.21-.09-.09.11.31.17ZM10,22.78l.28-.32-.49.14v.2Zm.09,4.91.09-.11L10,27.5l-.07.3Zm.1,6.41L10,33.92l-.08.3.31.08Zm0-10.63.3,0,.16-.52-.4.13-.27.33Zm.53,6.78.75.54.08-.2-.43-.37.07-.41-.2,0-.22-.29-.31-.07-.28.32-.2,0,0,.49.11.1.49-.14ZM10.2,20v-.2l-.2.11Zm.38-5.35-.3-.08-.2.12.33.28.19-.12Zm-.34,30,.3,0-.12-.19-.3,0Zm.13-28.9-.11-.09-.08.21Zm.55,26.14-.21-.18-.3,0-.18.22.15.68.31.08-.13-.39.39-.13Zm-.66-8.37.21.08.09-.11Zm.23.38h0Zm-.11-7.82.12.19h.2l.08-.21-.32-.17Zm.49,1.07.07-.31-.3-.08-.09.21.12.19Zm0-4.41-.11-.09-.08.2ZM10.91,66l-.11-.1-.08.21Zm.17-31,.18-.32-.21-.08-.29.22,0,.2Zm-.16,1.81-.08.21.13.39h.2l.17-.42-.25-.58-.2,0Zm.13,1.6.4,0,.06-.41-.4,0-.27.33ZM10.86,9.27l.3,0L10.84,9Zm.43,19.43-.21-.18-.08.3Zm0-21.37.19-.21-.3,0-.09.21Zm.35-5.84-.23-.29-.29.13.23.38.2,0Zm.2,31.88,0-.6-.38.23,0,.5.2.09ZM11.48,12l0,.2.19-.11Zm.28,11.12-.12-.2-.08.21.11.19Zm.11,43.52.19-.11.06-.51-.39.13-.06.51Zm.58-2.85-.12-.29-.53-.36.14.49.33.37Zm-.3-62.37L12,1.25l-.2,0,0,.2Zm1,67.23-1,.28.82.14Zm.08-47.45.07-.41-.3,0-.27.42.12.2Zm-.27,9.25-.09.2.15.59.28-.22-.14-.59Zm.52,4.07.18-.22,0-.2-.3,0-.06.4Zm.33,8-.21-.09-.08.31.4,0Zm0-3.32-.31-.07,0,.3.3,0Zm.24,32.39.39-.13.17-.32-.2-.08-.4.13-.17.31Zm2.37-1.69v-.2l-.3.12.12.19ZM16.36,60v.1l.19-.12Z"
     id="path902"
     style="fill:#ffffff;fill-opacity:1" />
</svg>
