<svg id="Ebene_1" data-name="Ebene 1" xmlns="http://www.w3.org/2000/svg" viewBox="0 0 844.47 176.69"><defs><style>.cls-1{fill:#fff;}</style></defs><title>Zeichenfläche 14</title><path class="cls-1" d="M842.92,128.91q1-15.31,1.55-30.74c-1.39-14.62-.25-30.47-.67-45.67-.32-6.47-.65-13.14-1-19.72.24-4.55.36-9.19.4-13.86,0-6.05,0-12.14-.06-18.12H750.52l-73.69,0c-1,.22,18.72,0,24.1.18H652.61q-72.27-.15-145-.31C495.85.61,481.48.48,476.13.4c-20.8-.09-12.28.12-27.5.09L446.57.27C424.31.45,414,0,393.08.11c-1.12.09-8.77.11-16.21.1C376.5,0,353.94.22,355,0l-.21,0c-4.49,0-7.68,0-13.17,0-8.52.08-88.44.73-97.1.82l-4,0c-12,0-17.07.18-10.09.22H215.69l1.7,0H202.73C200,1,197,.84,201.14.73c-8.3.08-17.63.13-25.94.09,14.82.09,31.93.21,48.68.34l-28.34.08c-13.1-.1-29.24-.18-42.84-.25-4.51,0-7.63.28-17.88.16-5-.18-11.57,0-20.09-.12C124.52.93,134.09,1,144,1c-1.71-.22-24.15-.15-32-.21-3.68.07-22.83,0-34.87.06C80.6.7,75.37.69,69.35.66L65.67.7l3.56,0c-3.14,0-6.5.1-8.93.06-8.11,0-13,.07-9.68.14-.58.05-38.92.37-34.23.37,2.57,0,2.75.05,2.2.09-1.12,0-1.7,0-1.4.06-1.18.05-2,.09,1.61.11l3.34-.05c6.2,0,9.29.05,10.4.11l-9.71,0-16.65,0c0,.69-.08,1.38-.11,2.07-2,5-.2,5.4-2,9.89l.55-.14c-.45,3.92-.85,7.85-1.23,11.78,0,.33-.1.67-.14,1-1.09,7.53-2,14.78-1.79,21.38,0,.08.05.16.08.24Q.51,63.1,0,78.52C1.39,93.14.25,109,.67,124.19c.32,6.47.64,13.14,1,19.72-.25,4.55-.37,9.19-.4,13.85,0,6.06,0,12.15.05,18.13H94l73.69,0c1-.22-18.73,0-24.1-.18h48.32q72.28.15,145,.31c11.73.06,26.09.19,31.45.27,20.8.09,12.28-.12,27.5-.09l2.06.22c22.26-.18,32.53.25,53.5.16,1.1-.1,8.75-.11,16.19-.1.38.24,22.94,0,21.86.2l.21,0c4.49,0,7.68,0,13.17,0,8.52-.08,88.44-.73,97.1-.82l4,0c11.95,0,17.06-.18,10.08-.22h14.74l-1.7,0h14.66c2.7,0,5.76.13,1.59.24,8.3-.09,17.63-.13,25.94-.09-14.82-.09-31.93-.21-48.68-.34l28.34-.08c13.1.09,29.24.18,42.84.25,4.51,0,7.63-.28,17.88-.16,5,.18,11.57,0,20.09.12-9.79.1-19.36.05-29.29,0,1.7.22,24.15.15,32,.21,3.67-.07,22.82,0,34.86-.06-3.44.14,1.79.15,7.81.18l3.68-.05-3.56.05c3.14,0,6.48,0,8.92.06,8.11,0,13.3-.05,10-.13.57,0-.65-.08-2.8-.1,19.22-.2,41.41-.4,36.71-.4-2.56,0-2.74-.05-2.19-.09,1.12,0,1.7,0,1.41-.06,1.17-.05,2-.09-1.62-.11l-3.34.05c-6.2,0-9.3-.05-10.39-.12h9.69l16.66,0c0-.69.08-1.38.12-2.07,2-5,.19-5.4,2-9.89l-.55.14c.45-3.92.85-7.85,1.23-11.78,0-.33.09-.67.15-1,1.08-7.53,2-14.78,1.78-21.38,0-.08,0-.16-.08-.24M27.59,1.22c-6.09,0,11.43,0,27.51-.16C62,1.13,74.71.91,73.45,1l2.11,0,5,.05c-3,0-8.33.07-13.86.08l3.67-.05C65.86,1,51.75,1,43.87,1c-.08.09,2.86.1,2.64.14l-9.64.08H33.53l-2.1,0-7.56,0c-1.81,0,.93-.06,3.72-.06M825.37,175.46c-1.78,0-5.71,0-8.49,0,6.09,0-10.09.2-26.18.39-6.84-.07-20.94-.08-19.68-.19l-2.12,0-5,0c3,0,8.34-.07,13.86-.08l-3.66.05c4.49.08,18.6,0,26.48,0,.08-.09-2.86-.1-2.64-.14l9.64-.08h3.34l2.09,0,7.57,0c1.81,0,3.43,0,4.77.05"/></svg>