<svg id="Ebene_1" data-name="Ebene 1" xmlns="http://www.w3.org/2000/svg" viewBox="0 0 276.29 270.27"><defs><style>.cls-1{fill:#fff;}</style></defs><title>Zeichenfläche 8</title><path class="cls-1" d="M275.79,197.19q.33-23.43.5-47c-.45-22.36-.08-46.61-.21-69.86-.11-9.89-.22-20.1-.32-30.16.08-7,.12-14.06.13-21.19,0-9.27,0-18.58,0-27.73l-30.32,0-24.1,0c-.32.33,6.12,0,7.88.28l-15.81,0c-15.76-.17-31.6-.43-47.45-.48-3.84-.1-8.54-.29-10.29-.41-6.8-.14-4,.18-9,.13l-.67-.34c-7.28.28-10.65-.37-17.5-.23a44.18,44.18,0,0,1-5.3.14c-.13-.36-7.51,0-7.15-.3l-.07,0c-1.47,0-2.52,0-4.31,0C109,.13,82.84,1.11,80,1.26L78.69,1.2c-3.91,0-5.58.28-3.3.35l-4.82,0,.56,0-4.8,0c-.88,0-1.88-.2-.52-.36-2.72.13-5.77.2-8.49.13,4.85.15,10.45.33,15.93.53L64,1.89c-4.29-.14-9.57-.26-14-.37a39,39,0,0,1-5.85.24c-1.63-.27-3.78,0-6.57-.18,3.2-.15,6.33-.09,9.58-.07-.56-.33-7.9-.22-10.47-.31-1.2.1-7.46,0-11.4.08,1.12-.2-.59-.23-2.56-.27l-1.2.07L22.65,1c-1,0-2.12.15-2.92.09-2.65,0-4.25.1-3.17.22-.19.07-12.73.56-11.2.56.84,0,.9.08.72.14-.36,0-.55,0-.46.09-.38.08-.64.14.53.18L7.24,2.2a19,19,0,0,1,3.41.18l-3.18,0L2,2.37,2,5.54c-.65,7.62-.07,8.26-.65,15.12l.18-.21q-.22,9-.41,18c0,.51,0,1,0,1.54C.71,51.53.42,62.62.48,72.72l0,.37q-.34,23.41-.51,47C.45,142.47.08,166.72.22,190c.1,9.89.21,20.1.32,30.16-.08,7-.12,14.06-.14,21.19,0,9.27,0,18.58,0,27.73l30.32,0,24.11,0c.31-.34-6.13,0-7.89-.28l15.81,0c15.77.16,31.61.43,47.45.48,3.84.09,8.54.28,10.29.4,6.81.14,4-.17,9-.13l.68.34c7.28-.28,10.64.38,17.5.24A41.06,41.06,0,0,1,153,270c.12.36,7.5,0,7.15.31l.07,0c1.47,0,2.51,0,4.31,0,2.78-.12,28.93-1.11,31.76-1.26l1.32.06c3.91,0,5.59-.28,3.3-.34l4.83,0-.56,0,4.79,0c.89,0,1.89.2.53.36,2.71-.12,5.76-.19,8.48-.13-4.85-.14-10.44-.32-15.92-.53l9.27-.11c4.28.14,9.56.27,14,.37a39,39,0,0,1,5.85-.24c1.64.28,3.79,0,6.58.19-3.21.15-6.34.08-9.59.07.56.32,7.91.22,10.47.31,1.21-.1,7.47,0,11.41-.09-1.13.21.58.23,2.55.27l1.21-.06-1.17.06c1,0,2.12,0,2.92.1,2.65,0,4.35-.09,3.27-.2.19-.07-.21-.12-.91-.16,6.29-.3,13.55-.6,12-.61-.84,0-.9-.08-.72-.13.37,0,.56-.06.46-.1.39-.07.65-.14-.53-.17l-1.09.09a19.38,19.38,0,0,1-3.4-.19l3.17,0,5.45,0c0-1,0-2.11,0-3.17.64-7.61.06-8.26.65-15.12l-.18.21q.21-9,.4-18c0-.52,0-1,.05-1.55.35-11.52.64-22.61.58-32.71,0-.12,0-.24,0-.36M9,1.87c-2,0,3.74,0,9-.25,2.24.11,6.41-.22,6-.05l.69-.05,1.63.07c-1,.06-2.72.11-4.53.13L23,1.64c-1.47-.12-6.09-.07-8.67-.06,0,.13.94.15.87.21-.83.05-2,.09-3.16.12L11,1.93l-.69,0C9.49,1.93,8.6,2,7.81,2,7.22,2,8.12,1.87,9,1.87m261,266.52c-.59.05-1.87,0-2.78,0,2,0-3.3.3-8.57.59-2.24-.11-6.85-.12-6.44-.29l-.69.06-1.63-.08c1-.05,2.73-.1,4.54-.12l-1.2.07c1.47.13,6.08.08,8.66.06,0-.13-.94-.14-.86-.2.82-.06,2-.09,3.15-.12l1.09,0,.69,0c.79,0,1.68-.05,2.47-.06.6,0,1.13,0,1.57.08"/></svg>