<svg id="Ebene_1" data-name="Ebene 1" xmlns="http://www.w3.org/2000/svg" viewBox="0 0 685.67 549.23"><defs><style>.cls-1{fill:#fff;}</style></defs><title>Zeichenfläche 7</title><path class="cls-1" d="M684.42,400.71q.83-47.59,1.25-95.56c-1.12-45.44-.2-94.72-.54-142-.26-20.11-.52-40.85-.78-61.29.19-14.15.29-28.58.32-43.07,0-18.84,0-37.75,0-56.34l-75.24,0-59.83-.06c-.78.67,15.2,0,19.56.56l-39.23,0c-39.12-.33-78.42-.88-117.75-1-9.53-.2-21.19-.59-25.54-.83-16.89-.29-10,.36-22.33.26L362.59.84c-18.07.56-26.41-.77-43.43-.48-.9.27-7.12.31-13.15.29-.31-.73-18.62,0-17.75-.61l-.17,0c-3.64,0-6.24,0-10.69-.09-6.92.25-71.81,2.26-78.84,2.57l-3.27-.12c-9.71,0-13.86.56-8.19.69l-12,0,1.38-.05-11.9,0c-2.19-.07-4.67-.41-1.29-.73-6.74.25-14.32.39-21.06.26,12,.3,25.92.66,39.52,1.08l-23,.22C148.13,3.56,135,3.3,124,3.09c-3.67,0-6.2.85-14.52.49-4.06-.56-9.39,0-16.31-.38,8-.3,15.72-.17,23.78-.14-1.39-.66-19.61-.45-26-.63-3,.2-18.53,0-28.3.17,2.78-.42-1.46-.46-6.35-.54l-3,.13,2.89-.13c-2.55,0-5.27.3-7.25.18-6.58-.08-10.54.21-7.86.43-.47.15-31.6,1.14-27.79,1.16,2.08.06,2.23.16,1.79.27-.91,0-1.38.1-1.14.19-1,.15-1.61.29,1.31.35L18,4.47a59.67,59.67,0,0,1,8.44.36l-7.88,0c-4.49,0-9,0-13.52-.06l-.09,6.44C3.33,26.73,4.77,28,3.32,42l.44-.42q-.54,18.3-1,36.61c0,1-.08,2.1-.11,3.14-.88,23.41-1.61,46-1.45,66.46l.06.75Q.42,196.12,0,244.08c1.13,45.44.2,94.72.54,142,.26,20.1.53,40.85.79,61.3C1.13,461.48,1,475.9,1,490.4c0,18.84,0,37.75,0,56.35l75.25,0,59.83.07c.77-.68-15.21,0-19.57-.57l39.24,0c39.12.33,78.42.88,117.75,1,9.53.2,21.19.59,25.54.83,16.88.29,10-.36,22.33-.26l1.67.68c18.07-.56,26.41.77,43.44.49.89-.28,7.11-.32,13.15-.3.31.73,18.62-.05,17.74.62l.17-.06c3.65,0,6.24,0,10.7.09,6.92-.25,71.81-2.25,78.83-2.56l3.28.12c9.7,0,13.85-.57,8.19-.7l12,0-1.38,0,11.9,0c2.2.07,4.68.41,1.3.73,6.74-.25,14.31-.39,21.06-.26-12-.29-25.93-.66-39.52-1.08l23-.22c10.64.28,23.75.53,34.79.75,3.66,0,6.19-.85,14.51-.49,4.06.56,9.4,0,16.32.38-7.95.3-15.72.17-23.79.14,1.39.66,19.62.45,26,.64,3-.21,18.53,0,28.3-.18-2.79.42,1.46.46,6.34.54l3-.13-2.89.13c2.55,0,5.26.09,7.24.21,6.59.07,10.8-.18,8.12-.4.47-.15-.53-.26-2.27-.34,15.61-.6,33.62-1.22,29.81-1.24-2.08-.06-2.23-.16-1.78-.27.91,0,1.38-.1,1.14-.19,1-.15,1.6-.29-1.31-.35l-2.71.18a60.32,60.32,0,0,1-8.44-.37l7.87,0,13.52,0c0-2.14.07-4.29.1-6.44,1.59-15.47.16-16.78,1.61-30.72l-.44.42q.54-18.29,1-36.61l.12-3.14c.88-23.4,1.6-45.95,1.45-66.46,0-.25,0-.51-.06-.75M22.4,3.81c-4.94,0,9.28.06,22.34-.52,5.56.22,15.92-.44,14.9-.1l1.72-.1,4,.14c-2.44.11-6.77.22-11.25.26l3-.16c-3.64-.25-15.1-.15-21.5-.12-.06.26,2.33.3,2.14.42-2,.11-4.95.18-7.82.25l-2.72,0-1.7,0c-2,.06-4.17.09-6.14.12-1.47,0,.76-.19,3-.18M670.17,545.4c-1.45.1-4.64,0-6.9,0,5,0-8.19.62-21.25,1.2-5.56-.22-17-.24-16-.58l-1.71.11-4.05-.15c2.45-.11,6.78-.22,11.26-.26l-3,.16c3.65.25,15.1.15,21.5.12.07-.27-2.32-.3-2.14-.42,2.06-.11,5-.18,7.82-.25.92,0,1.83,0,2.72,0l1.7.06c2-.07,4.18-.1,6.14-.13,1.48,0,2.79.06,3.88.16"/></svg>