<?xml version="1.0" encoding="UTF-8" standalone="no"?>
<svg
   xmlns:dc="http://purl.org/dc/elements/1.1/"
   xmlns:cc="http://creativecommons.org/ns#"
   xmlns:rdf="http://www.w3.org/1999/02/22-rdf-syntax-ns#"
   xmlns:svg="http://www.w3.org/2000/svg"
   xmlns="http://www.w3.org/2000/svg"
   xmlns:sodipodi="http://sodipodi.sourceforge.net/DTD/sodipodi-0.dtd"
   xmlns:inkscape="http://www.inkscape.org/namespaces/inkscape"
   id="Ebene_1"
   data-name="Ebene 1"
   viewBox="0 0 313.26313 115.28807"
   version="1.1"
   sodipodi:docname="message.svg"
   width="312.86322"
   height="115.28807"
   inkscape:version="0.92.4 5da689c313, 2019-01-14">
  <metadata
     id="metadata875">
    <rdf:RDF>
      <cc:Work
         rdf:about="">
        <dc:format>image/svg+xml</dc:format>
        <dc:type
           rdf:resource="http://purl.org/dc/dcmitype/StillImage" />
        <dc:title>Zeichenfläche 1</dc:title>
      </cc:Work>
    </rdf:RDF>
  </metadata>
  <sodipodi:namedview
     pagecolor="#ffffff"
     bordercolor="#666666"
     borderopacity="1"
     objecttolerance="10"
     gridtolerance="10"
     guidetolerance="10"
     inkscape:pageopacity="0"
     inkscape:pageshadow="2"
     inkscape:window-width="1916"
     inkscape:window-height="1036"
     id="namedview873"
     showgrid="false"
     viewbox-width="313.32"
     inkscape:zoom="4.2726574"
     inkscape:cx="156.63135"
     inkscape:cy="57.644037"
     inkscape:window-x="1600"
     inkscape:window-y="20"
     inkscape:window-maximized="0"
     inkscape:current-layer="Ebene_1" />
  <defs
     id="defs864">
    <style
       id="style862">.cls-1{opacity:0.8;}.cls-2{fill:#fff;}</style>
  </defs>
  <title
     id="title866">Zeichenfläche 1</title>
  <g
     class="cls-1"
     id="g870"
     style="opacity:0.8"
     transform="translate(0.17156288,-11.510658)">
    <path
       class="cls-2"
       d="m 6.7825755,122.61413 c -0.078459,0.99692 -1.3844208,0.89414 -1.425911,1.80368 -0.00471,0.0598 -0.3124133,0.14594 -0.4603817,0.11424 -2.5905089,-0.60512 -3.592413,-1.76731 -3.8732164,-4.3172 -0.0284314,-0.40348 0.3546881,-1.06546 -0.80062784,-0.91564 -0.56690421,0.0657 -0.43412221,-0.8567 -0.14870863,-0.91449 1.30609917,-0.40878 1.46029557,-1.73076 2.57485717,-2.25493 0.7001029,-0.35617 0.1740905,-0.42766 -0.2580459,-0.67232 -2.29554285,-1.29409 -2.37723767,-2.80516 -0.2500226,-4.343 0.8293786,-0.59677 0.918915,-1.35207 0.043658,-1.70182 -1.1688401,-0.44307 -0.7516596,-1.28293 -0.5408308,-1.66758 0.2871202,-0.58928 0.8460854,-0.9365 -0.00273,-1.49482 -0.2681525,-0.16153 0.042368,-0.53833 0.514288,-0.67172 1.6980352,-0.41806 1.7780635,-1.43492 0.6100524,-2.78071 C 2.1939429,102.15103 1.287023,101.0565 2.6352596,100.23976 A 1.05,1.05 0 0 0 3.1741041,99.128613 C 3.2251469,97.587868 2.6019784,96.074309 2.8109588,94.566056 2.8266506,94.366673 2.7694198,94.201674 2.5020518,94.030168 0.86322884,93.058592 1.6408687,92.227041 2.8133526,91.47672 1.2447749,90.249869 1.0305729,88.638095 2.2325477,87.258147 c 0,0 0.1581681,-0.09789 0.1397989,-0.1194 C 1.519794,85.22596 3.3379648,83.663796 3.2561769,81.771546 3.174389,79.879296 1.3634127,78.673491 1.8391139,76.835148 1.9688506,76.333781 1.6853742,75.729677 2.5494608,75.456631 2.9707504,75.329293 3.0504107,74.954387 2.7874267,74.472267 2.3325816,73.623966 2.5908093,72.891969 3.9326317,72.666553 2.5121154,71.852591 2.3455917,71.037012 3.249369,70.004739 a 1,1 0 0 0 0.00489,-1.46413 C 2.1065091,67.447187 2.0154922,66.436932 3.0719454,65.376551 3.148791,65.292321 3.3995895,65.291997 3.3079742,65.054076 2.3799591,62.443216 3.6483005,59.96509 3.7762332,57.447366 3.9480586,55.264117 1.8662524,53.675885 2.4528602,51.575434 2.5377821,51.261128 2.2405066,51.087268 1.8509243,51.066638 1.4613419,51.046009 1.1868195,50.583043 1.3526031,50.515843 2.4991954,50.094504 2.1693794,48.804651 3.0559887,48.372883 4.7623309,47.594361 4.9822512,46.839288 3.6513644,45.651205 3.0809052,45.124825 2.4452319,45.044704 3.7423769,44.494781 5.039522,43.944859 5.2327619,41.362058 4.0821048,40.178129 A 1.35,1.35 0 0 1 3.9958399,38.21531 C 4.6260655,37.472467 4.898509,36.942208 3.9116982,36.352968 A 2.26,2.26 0 0 1 3.4997307,35.979494 C 5.0097348,34.764221 2.2227946,33.341173 3.8229822,31.872194 5.0874493,30.717845 3.3785629,28.59723 4.7271674,27.138544 5.2734862,26.569654 4.3791684,26.589547 4.2201227,26.316226 3.8127696,25.501755 3.3463861,24.672607 4.9849299,24.500636 5.308651,24.465927 5.8533562,24.809724 5.9190313,24.102698 5.95983,23.584301 6.0100438,22.946274 5.3935243,22.877691 4.4028837,22.719478 4.5711584,22.110804 4.670203,21.617053 c 0.064336,-0.817472 0.8729476,-0.513091 1.3438526,-0.506122 1.7545745,0.138088 3.3997186,0.137161 3.7323894,-1.923089 0.054137,-0.687873 0.803717,-0.398168 1.255469,-0.402738 6.156055,-0.217673 12.315803,-0.354807 18.512613,-0.198128 2.191879,0.06216 4.365203,-0.659543 6.665822,-0.06721 0.549643,0.153598 1.554357,-1.141566 2.774843,-0.844893 0.680027,0.153829 1.488452,-0.304155 1.945975,0.765038 0.310245,0.646334 2.302972,0.562423 2.605877,0.154932 0.726455,-0.945919 1.543236,-0.490431 2.307954,-0.520524 1.945789,0.0027 3.890793,0.01531 5.819551,0.106926 0.428674,0.03374 0.518397,0.0408 0.808194,-0.3276 0.54498,-0.679335 1.424067,-0.760613 1.834328,0.144365 a 0.89,0.89 0 0 0 1.226302,0.477687 c 2.659043,-1.285336 5.502013,-0.319301 8.23135,-0.585982 1.242685,-0.112848 2.541908,0.330454 3.6939,-0.54185 a 1.54,1.54 0 0 1 1.624975,0.127888 c 0.679336,0.54498 1.357656,1.230313 2.100818,-0.05534 0.263029,-0.410629 1.015748,-0.160801 1.271901,0.280657 0.536952,0.824671 1.10598,0.859424 1.744605,0.137303 0.352751,-0.403567 0.830257,-0.225554 1.261285,-0.221724 1.916665,-0.0097 3.859316,0.0329 5.814289,0.04633 0.378828,0.02981 0.966318,0.467257 1.102008,-0.364662 0.03531,-0.448613 0.744687,-0.412845 0.94384,-0.266769 2.122698,1.451018 4.195728,-0.672882 6.381977,-0.02937 2.18625,0.643515 4.85868,0.462634 7.296881,0.453906 1.094486,-0.01417 2.286403,0.390593 3.196228,-0.591049 a 1,1 0 0 1 0.90429,-0.01911 c 1.61953,1.471603 3.1522,-0.413958 4.82891,-0.05129 a 31,31 0 0 0 5.76218,0.453493 c 0.6779,0.05335 1.52325,0.400749 1.8113,-0.710076 0.13287,-0.541243 3.42247,-0.151944 3.97982,0.413528 a 2.52,2.52 0 0 0 3.3202,5.01e-4 c 0.40259,-0.399644 0.83339,-0.265431 1.24291,-0.243232 a 34,34 0 0 1 5.14354,0.284435 c 0.92007,0.162689 2.22142,0.706468 3.16341,-0.68391 0.45369,-0.666459 2.23323,-0.335818 3.32726,-0.08922 a 9.3,9.3 0 0 0 2.46238,0.193794 c 5.02774,-0.156009 9.98173,0.625084 14.94809,0.484306 0.61808,0.04865 1.57388,0.394702 1.7722,-0.723184 0.0306,-0.388797 0.52749,-0.32963 0.89722,0.07061 0.92317,1.015561 1.52132,1.062636 2.38051,0.08704 0.24129,-0.261875 0.37066,-0.121292 0.61911,-0.09171 1.46893,0.326257 3.33265,-0.540188 4.42571,1.120692 a 0.68,0.68 0 0 0 0.52131,0.131306 c 1.87452,-1.768378 4.22988,-0.469575 6.33328,-0.685208 1.47668,-0.154618 3.54487,0.459544 4.46901,0.06082 1.37085,-0.594276 1.89137,-0.453001 2.80133,0.22047 a 1.05,1.05 0 0 0 0.88066,-0.101216 c 0.52707,-0.961611 0.98131,-1.507655 1.45416,0.0041 -0.007,0.08972 0.63937,0.160659 0.6779,0.05335 1.44507,-1.792146 3.61987,-0.748295 5.25482,-0.619622 5.28366,0.415833 10.567,0.580867 15.81863,0.893871 1.80442,0.142011 3.57367,0.221068 5.34998,0.210403 0.78231,0.0014 1.79242,0.421933 2.188,-0.780738 a 1.12,1.12 0 0 1 1.77641,0.370517 1.22,1.22 0 0 0 1.8892,0.339271 c 1.37155,-0.985427 1.78107,-0.963228 2.65291,0.449531 0.93669,-0.558229 1.7716,-2.117529 2.95762,-0.108282 a 1.21,1.21 0 0 0 1.59036,0.185349 c 1.44423,-0.889428 2.91062,-1.295628 4.20486,0.230621 a 0.6,0.6 0 0 0 0.82745,0.06512 6.27,6.27 0 0 1 6.41267,-0.03698 c 0.52319,0.362166 0.71833,0.176905 1.2419,-0.102879 0.73471,-0.41363 1.9474,-0.910014 2.22321,0.556146 0.13371,0.722719 0.73154,0.518996 1.19248,0.525179 l 13.16932,0.143696 c 0.13957,0.01098 0.34892,0.02746 0.39272,-0.01925 1.08008,-0.978274 2.37358,-0.334803 3.59084,-0.379436 0.48323,-0.02216 1.57757,0.47524 1.59354,-0.747276 0.022,-0.279137 1.0283,-0.320308 1.4237,-0.118663 a 3.25,3.25 0 0 0 3.91668,-0.313668 0.48,0.48 0 0 1 0.75475,-0.03088 1.33,1.33 0 0 0 2.17868,-0.279926 c 0.18148,-0.266583 1.83234,-0.467678 1.91164,-0.200633 0.19924,0.527258 0.95533,0.606825 0.95533,0.606825 1.41226,2.448352 1.82694,-0.01671 2.03856,-0.411325 0.7006,-1.509684 2.08249,-0.969598 2.94621,-0.600694 a 2.7,2.7 0 0 0 2.28294,0.179671 c 2.53147,-1.576242 5.48369,-1.233557 8.23195,-1.358316 5.82495,-0.34404 11.58607,-1.024124 17.40474,-1.288411 0.30904,0.02432 0.85075,-0.103571 0.86856,-0.202478 0.49421,-2.328402 2.74023,-0.787431 4.07121,-1.384846 a 21.78,21.78 0 0 1 2.40127,-0.814108 20.79,20.79 0 0 1 7.54537,-0.409258 c 0.67791,0.05335 0.26017,0.772795 0.48037,1.161269 0.2202,0.388474 0.89815,-0.450922 1.04496,0.232704 0.14682,0.683627 -0.94116,0.487661 -0.96917,0.716167 -0.1122,1.425592 -1.95922,1.9523 -2.19271,3.007233 -0.23349,1.054932 -0.48996,2.529355 0.4387,3.475132 a 3.06,3.06 0 0 1 0.55754,3.494517 8.68,8.68 0 0 0 -0.28125,2.044234 c -0.24102,1.405423 0.77958,2.839921 -0.33659,4.276776 -0.20299,0.284952 -1.23382,2.039482 0.94338,2.160677 a 1.36,1.36 0 0 1 0.0784,0.78858 25.21,25.21 0 0 0 -0.82337,3.706826 c -0.31934,1.890774 -0.62256,2.047466 0.7074,3.757084 a 1.13,1.13 0 0 1 0.0601,1.148255 c -0.96471,0.786735 -0.30983,2.152326 -1.40704,2.838355 -0.0498,-0.0039 -0.0569,0.0858 -0.09,0.123323 -0.86076,0.995534 1.36158,1.180467 0.68654,2.11037 -0.67504,0.929904 -0.71293,1.538808 0.42129,2.039341 0.27129,0.121661 0.44557,0.456366 0.31126,0.505981 -1.65335,0.742568 0.0546,2.49197 -1.26368,3.31106 -0.11436,0.05118 -0.11169,0.272076 -0.16333,0.418475 1.90074,0.320117 0.65418,1.756742 1.16963,2.599782 a 0.77,0.77 0 0 1 -0.48217,1.155733 0.82,0.82 0 0 0 -0.42212,1.030056 10.84,10.84 0 0 1 0.21583,5.032447 c -0.0998,0.50372 0.50511,1.484205 0.74377,2.275369 0.58214,2.16234 -5.5e-4,4.212945 -0.27654,6.317779 a 13.29,13.29 0 0 0 0.36407,4.041021 c 0.13292,0.732688 0.61264,1.39236 -0.64809,1.734499 -0.4205,0.11737 -0.22597,0.704443 -0.16763,1.110271 0.49071,2.686783 1.4521,5.510918 0.82783,8.089889 -0.47962,1.88819 0.7429,4.070836 -1.11617,5.770214 -0.19513,0.185261 -0.37476,1.575453 0.47451,1.873003 0.84927,0.297551 0.66074,0.653857 0.77418,1.124208 a 2,2 0 0 1 -1.01855,2.618155 c -0.50285,0.271384 -1.04557,0.53963 0.0125,0.733242 0.55199,0.123691 0.54078,0.393643 0.54322,0.744918 0.10099,1.01104 -1.07375,2.17245 0.35336,3.15746 0.12254,0.0999 0.14737,0.80404 -0.28679,0.84009 -1.83087,0.0665 -1.40773,1.06282 -1.3259,2.06232 a 2.3,2.3 0 0 1 -0.53575,1.96402 1.88,1.88 0 0 0 0.46025,2.56402 3,3 0 0 1 0.56908,3.47536 3.77,3.77 0 0 0 -0.52241,1.79455 c 0.0214,1.76712 -0.92652,3.48805 -0.28545,5.28389 0.13362,0.34153 -1.66378,1.00255 -2.07229,0.84 -1.17018,-0.55352 -2.73155,-0.21498 -2.9583,0.49943 -0.38774,1.10298 -1.02554,0.92238 -1.82856,0.9294 a 54.08,54.08 0 0 0 -5.9467,0.23415 c -2.13724,0.26312 -4.31093,-0.5399 -6.51089,-0.37199 -1.29175,0.099 -2.61003,0.0253 -3.65314,0.91621 -0.0868,0.0834 -0.87711,0.69332 -1.40566,-0.11063 -0.33803,-0.54821 -3.86781,-0.43481 -4.44066,-0.0385 -1.59895,1.19824 -1.84795,1.04824 -4.24802,0.31768 -0.52814,-0.17197 -2.3237,-0.55402 -2.85986,0.77802 a 1.11,1.11 0 0 1 -1.17853,0.69969 16.78,16.78 0 0 0 -3.02998,0.26308 c -0.69886,0.0854 -1.49843,0.30337 -2.19073,-0.71408 -0.69231,-1.01746 -2.29471,-0.0301 -3.39257,0.15429 -1.31191,0.22778 -1.9234,0.35018 -1.92322,-1.05414 -9.7e-4,-0.75239 -0.74866,-0.81124 -1.43048,-0.81475 q -9.89371,-0.0865 -19.79739,-0.17382 c -0.52837,-0.0416 -1.32041,-0.17413 -1.23443,0.64514 0.13593,1.20438 -0.79647,1.07081 -1.62469,1.01566 -8.70881,-0.48478 -17.43064,-0.54929 -26.13373,-1.23423 -0.78756,-0.062 -1.81369,-0.53395 -2.38134,0.81567 -0.20713,0.46519 -1.80635,0.51988 -2.40044,-0.0886 -1.18975,-1.19703 -2.35134,-0.96746 -3.62329,-0.35537 -0.24027,0.12152 -0.34624,0.19343 -0.6275,0.071 -2.23439,-1.17894 -2.19161,-1.08529 -4.68464,0.002 -0.75835,0.33152 -2.04797,0.53095 -2.63924,-0.36821 a 1.28,1.28 0 0 0 -1.76856,-0.47021 c -1.50687,1.1754 -3.21705,0.21827 -4.75613,0.52847 -1.02124,0.23058 -0.49841,-0.93198 -1.29729,-1.10519 -1.0397,-0.17211 -1.61638,0.6552 -2.40026,0.67375 -3.45136,0.009 -6.88883,-0.0306 -10.3384,-0.17167 a 2.86,2.86 0 0 1 -2.41292,-0.82143 c -0.48129,-0.63973 -0.81627,0.55768 -1.47816,0.55574 a 55.54,55.54 0 0 1 -6.80729,-0.17463 33.94,33.94 0 0 0 -8.45242,-0.17371 c -1.23955,0.073 -2.59706,0.49777 -3.95075,0.49155 -0.73772,-0.0581 -1.54725,0.15909 -1.9499,-0.7152 -0.20238,-0.48738 -0.97102,-0.40744 -0.99691,-0.0785 0.0623,1.62992 -1.34589,0.78683 -1.80211,0.72083 a 39.55,39.55 0 0 0 -6.42431,-0.32504 c -0.39876,-0.0314 -0.86865,-0.17871 -1.2046,0.26631 -0.33595,0.44501 -0.79578,0.67965 -0.99221,-0.13828 0.006,-0.0798 -0.49745,-0.17958 -0.63803,-0.0502 -2.18366,1.36287 -4.57991,0.20128 -6.84227,0.52478 -0.35598,0.0623 -0.78387,0.0185 -0.84512,-0.47778 -0.0875,-0.79934 -1.03877,-0.69364 -1.31523,-0.49472 -1.61104,1.09698 -3.41297,0.4135 -5.13283,0.59913 -0.71802,0.0739 -1.56572,-0.2436 -1.93855,0.66997 a 0.61,0.61 0 0 1 -0.43518,0.1764 c -2.57422,-1.57683 -5.28236,0.58736 -7.89784,-0.21031 -0.39092,-0.13107 -0.64666,0.0594 -0.79163,0.49943 -0.22149,0.77501 -0.64892,0.47054 -1.00555,0.0312 -0.73767,-0.9508 -0.92395,-1.00559 -1.25219,-0.1487 -0.32824,0.85689 -0.74861,0.46269 -1.3145,0.38806 a 37.64,37.64 0 0 0 -10.123004,-0.10456 24.5,24.5 0 0 1 -6.899497,0.35978 31.84,31.84 0 0 0 -8.089614,-0.19531 40.79,40.79 0 0 1 -6.658113,0.47909 8.57,8.57 0 0 1 -3.409458,-0.26833 1.51,1.51 0 0 0 -1.243469,0.12282 c -1.670987,1.60384 -3.716192,0.57019 -5.581673,0.6942 -1.078471,0.0656 -2.173143,-0.6826 -3.141997,0.28436 a 0.67,0.67 0 0 1 -0.887256,-0.0698 c -0.45586,-0.70795 -0.844658,-0.73854 -1.3529,-0.0162 a 0.77,0.77 0 0 1 -0.69438,0.156 c -2.139866,-0.85052 -4.26662,0.42656 -6.38567,-0.0512 -1.971081,-0.44602 -3.729765,-1.29663 -5.942274,-0.96921 a 87.19,87.19 0 0 1 -14.112192,0.87547 c -2.709027,1.79298 -6.030193,1.04008 -9.060405,1.43355 -3.030212,0.39346 -6.313439,0.30559 -9.480405,0.3974 A 8.88,8.88 0 0 1 11.759781,125.012 c -0.853612,-0.87969 -2.2547879,-0.91974 -3.3879048,-1.17945 a 2.48,2.48 0 0 1 -1.5900853,-1.20848"
       id="path868"
       inkscape:connector-curvature="0"
       style="fill:#ffffff" />
  </g>
</svg>
