<?xml version="1.0" encoding="UTF-8" standalone="no"?>
<svg
   xmlns:dc="http://purl.org/dc/elements/1.1/"
   xmlns:cc="http://creativecommons.org/ns#"
   xmlns:rdf="http://www.w3.org/1999/02/22-rdf-syntax-ns#"
   xmlns:svg="http://www.w3.org/2000/svg"
   xmlns="http://www.w3.org/2000/svg"
   xmlns:sodipodi="http://sodipodi.sourceforge.net/DTD/sodipodi-0.dtd"
   xmlns:inkscape="http://www.inkscape.org/namespaces/inkscape"
   id="Ebene_1"
   data-name="Ebene 1"
   viewBox="0 0 408.71908 118.06255"
   version="1.1"
   sodipodi:docname="preview_title.svg"
   width="408.71909"
   height="118.06255"
   inkscape:version="0.92.4 5da689c313, 2019-01-14">
  <metadata
     id="metadata4593">
    <rdf:RDF>
      <cc:Work
         rdf:about="">
        <dc:format>image/svg+xml</dc:format>
        <dc:type
           rdf:resource="http://purl.org/dc/dcmitype/StillImage" />
        <dc:title>Zeichenfläche 11</dc:title>
      </cc:Work>
    </rdf:RDF>
  </metadata>
  <sodipodi:namedview
     pagecolor="#ffffff"
     bordercolor="#666666"
     borderopacity="1"
     objecttolerance="10"
     gridtolerance="10"
     guidetolerance="10"
     inkscape:pageopacity="0"
     inkscape:pageshadow="2"
     inkscape:window-width="1596"
     inkscape:window-height="861"
     id="namedview4591"
     showgrid="false"
     inkscape:zoom="2.638277"
     inkscape:cx="202.14378"
     inkscape:cy="59.656278"
     inkscape:window-x="0"
     inkscape:window-y="18"
     inkscape:window-maximized="0"
     inkscape:current-layer="Ebene_1" />
  <defs
     id="defs4584">
    <style
       id="style4582">.cls-1{fill:#fff;}</style>
  </defs>
  <title
     id="title4586">Zeichenfläche 11</title>
  <path
     class="cls-1"
     d="m 9.1566423,113.92644 c -0.078459,0.99691 -1.8094028,0.94093 -1.8616469,1.85967 a 1,1 0 0 1 -0.5915501,0.12396 c -3.4042887,-0.58891 -4.7283446,-1.73633 -5.1203781,-4.27491 -0.04837,-0.40505 0.4451952,-1.06837 -1.06218022,-0.90613 -0.73794933,0.0723 -0.58444439,-0.85851 -0.19855449,-0.91841 1.69803531,-0.41807 1.88213931,-1.73769 3.32882201,-2.27584 0.9209938,-0.35885 0.23469,-0.43292 -0.3286148,-0.66785 -3.03192302,-1.2417 -3.16110994,-2.7866 -0.3804064,-4.34323 1.0502696,-0.59944 1.1804673,-1.36158 0.02372,-1.70339 -1.5208995,-0.43066 -0.9833044,-1.271079 -0.711876,-1.660979 0.3676582,-0.59299 1.0753764,-0.91846 -0.032634,-1.49718 -0.3486905,-0.15784 0.042368,-0.53833 0.6753639,-0.6791 2.2203553,-0.42711 2.3103527,-1.44318 0.7611592,-2.78888 -0.7528122,-0.63101 -1.9511918,-1.71839 -0.2002654,-2.55359 a 1,1 0 0 0 0.6999167,-1.11853 c 0.040289,-1.53156 -0.7662476,-3.0094 -0.5349751,-4.54599 0.015692,-0.19938 -0.060693,-0.37592 -0.4085986,-0.54373 -2.1519584,-0.95178 -1.0936125,-1.781296 0.381085,-2.547956 -2.0631135,-1.315927 -2.3410534,-2.882563 -0.8108805,-4.22665 0,0 0.1988293,-0.104723 0.1896448,-0.115477 C 1.8903805,76.631354 4.1909945,75.057005 4.0693299,73.161616 3.9476654,71.266228 1.5529849,70.084701 2.1498854,68.235834 2.3095296,67.736821 1.9363306,67.125656 3.0611849,66.853071 3.6136429,66.715994 3.712457,66.352626 3.368935,65.874199 2.7537985,65.023313 3.0925643,64.287625 4.7971998,64.040607 2.9233632,63.251154 2.6970245,62.430867 3.862354,61.389086 4.4031805,60.889981 4.4347947,60.36083 3.8564896,59.934141 2.3398809,58.811689 2.2089874,57.798295 3.5737004,56.772207 3.681238,56.680361 4.0026053,56.67556 3.8810825,56.435285 2.7206381,53.846256 4.2820085,51.341037 4.4820792,48.798898 4.6048433,46.601757 1.9201791,45.026264 2.6670782,42.928398 2.7727231,42.605692 2.3949096,42.435524 1.8749434,42.414664 1.3549772,42.393804 1.0091015,41.945284 1.2255154,41.872038 2.7134135,41.447468 2.273152,40.158954 3.4013752,39.716108 5.6232066,38.887878 5.9013727,38.157451 4.1478577,36.986261 3.386415,36.464912 2.5597582,36.389821 4.2388697,35.829837 6.1543341,35.198175 6.1518829,32.680221 4.6691048,31.510277 A 1.15,1.15 0 0 1 4.5269483,29.492905 C 5.3481573,28.74503 5.7003542,28.221048 4.4121145,27.638177 A 2.52,2.52 0 0 1 3.8590093,27.273657 C 5.8215491,26.043845 2.1602296,24.642261 4.3034601,23.155835 5.9491096,22.001392 3.6772419,19.896655 5.4285363,18.419507 6.1459002,17.844016 4.9700918,17.871849 4.7612002,17.594605 4.2127095,16.789088 3.525435,15.962617 5.7361447,15.785522 6.1611267,15.738722 6.876877,16.075918 6.9525213,15.369676 6.9933203,14.851279 7.0435343,14.213251 6.2559691,14.151269 4.8901924,14.04378 5.172051,13.393891 5.2918185,12.89174 c 0.064336,-0.817473 1.1436845,-0.511846 1.755727,-0.513832 2.2999712,0.09073 4.4451425,0.109099 4.8483825,-1.955628 0.113952,-0.6831659 1.034578,-0.400062 1.647405,-0.412017 8.045952,-0.2695519 16.085627,-0.4593519 24.222963,-0.3605989 2.865307,0.04495 5.700519,-0.674823 8.725979,-0.115725 0.721473,0.137029 2.016863,-1.15532 3.610131,-0.879463 0.900918,0.151151 1.950173,-0.307941 2.618617,0.75779 0.411506,0.6342419 3.01706,0.538376 3.410472,0.127977 0.950485,-0.988473 2.045618,-0.501047 3.051166,-0.532249 2.539462,-0.02082 5.077354,-0.0217 7.609755,0.0472 0.558273,0.04394 0.677904,0.05335 1.029085,-0.330277 a 1.51,1.51 0 0 1 2.407279,0.129272 1.34,1.34 0 0 0 1.704821,0.515347 c 3.452885,-1.303107 7.180203,-0.357751 10.763982,-0.647464 1.615467,-0.133664 3.319734,0.261269 4.823785,-0.623452 a 2.49,2.49 0 0 1 2.113465,0.166334 c 0.901011,0.532333 1.800222,1.214989 2.764276,-0.07334 0.332812,-0.405137 1.287269,-0.169525 1.653867,0.270595 a 1.44,1.44 0 0 0 2.282941,0.179671 c 0.452443,-0.395721 1.081055,-0.225877 1.643251,-0.231786 2.510342,-0.03314 5.015962,-0.0065 7.613672,-0.0026 0.49846,0.03923 1.27772,0.461672 1.43413,-0.378647 0.0353,-0.448612 0.97555,-0.414738 1.2353,-0.273924 2.79613,1.433802 5.4812,-0.692083 8.35241,-0.08494 3.04909,0.641206 6.36661,0.420816 9.54881,0.390394 1.43579,-0.0174 2.98055,0.364977 4.17108,-0.614635 a 1.74,1.74 0 0 1 1.18656,-0.03702 c 2.13189,1.461772 4.12705,-0.437544 6.32609,-0.08392 a 52,52 0 0 0 7.55317,0.383798 c 0.87729,0.06904 1.975,0.396178 2.35355,-0.717554 0.17354,-0.548074 4.47865,-0.189193 5.174,0.407202 a 4.14,4.14 0 0 0 4.35566,-0.02835 2.16,2.16 0 0 1 1.61491,-0.254078 58,58 0 0 1 6.75194,0.240493 c 1.20157,0.15475 2.95467,0.693959 4.11598,-0.679158 0.58407,-0.666228 2.92738,-0.361435 4.36271,-0.11807 a 15.07,15.07 0 0 0 3.214,0.202792 c 6.5257,-0.198611 12.99758,0.541448 19.56159,0.365913 0.82296,-0.0054 2.06708,0.373333 2.31525,-0.740631 0.0314,-0.398767 0.67859,-0.337799 1.16639,0.0918 1.28519,1.003929 2.01451,1.041266 3.1245,0.06535 0.30189,-0.267138 0.49186,-0.131816 0.81009,-0.09674 1.93144,0.312502 4.34818,-0.570605 5.79329,1.077859 a 1.08,1.08 0 0 0 0.69235,0.124706 c 2.43986,-1.814163 5.52689,-0.507931 8.283,-0.732381 1.92922,-0.169157 4.64093,0.425434 5.84655,0.01877 1.78351,-0.611953 2.46432,-0.468094 3.66261,0.238099 a 1.82,1.82 0 0 0 1.15218,-0.10994 c 0.67661,-0.949841 1.2628,-1.515593 1.89672,-0.01122 a 1.79,1.79 0 0 0 0.88726,0.06983 c 1.75222,-1.998684 4.61277,-1.001173 6.70865,-0.866316 6.91884,0.414122 13.83444,0.486939 20.71442,0.75757 2.36135,0.0755 4.66972,0.186959 7.00902,0.160416 1.00319,-0.0013 2.34543,0.40527 2.84989,-0.778801 a 1.73,1.73 0 0 1 2.32863,0.363824 1.91,1.91 0 0 0 2.48288,0.315777 c 1.7842,-1.003105 2.31414,-0.98146 3.46747,0.42336 1.22815,-0.565383 2.30468,-2.135761 3.87266,-0.136576 a 1.93,1.93 0 0 0 2.08355,0.16398 c 1.87684,-0.905537 3.79498,-1.316308 5.50109,0.202234 a 1,1 0 0 0 1.09214,0.01574 10.45,10.45 0 0 1 8.39385,-0.101739 c 0.68349,0.36475 0.93923,0.174228 1.61312,-0.103757 0.95639,-0.426276 2.54107,-0.933507 2.96721,0.534453 0.18356,0.726641 0.9624,0.517103 1.56447,0.514332 5.75604,0.02168 11.52441,0.01424 17.24057,0.03278 0.17945,0.01412 0.44862,0.03531 0.50317,-0.02059 1.42217,-0.991474 3.09843,-0.368035 4.69686,-0.412761 0.62437,-0.03111 2.07078,0.45387 2.06681,-0.770215 0.022,-0.279137 1.39951,-0.321185 1.85551,-0.124803 a 5.33,5.33 0 0 0 5.13394,-0.3583 0.76,0.76 0 0 1 1.00476,-0.02123 2.05,2.05 0 0 0 2.85289,-0.307111 c 0.22135,-0.263445 2.38535,-0.484341 2.49455,-0.214943 0.25906,0.531966 1.26674,0.60124 1.26674,0.60124 1.86479,2.433813 2.38992,-0.03259 2.64219,-0.434033 0.90157,-1.513931 2.77586,-0.985246 3.85129,-0.629773 a 4.5,4.5 0 0 0 2.99703,0.155624 c 3.30537,-1.595582 7.17263,-1.281191 10.76771,-1.459674 7.61516,-0.403767 15.13501,-1.125993 22.76304,-1.438468 0.39876,0.03138 1.1123,-0.113078 1.13011,-0.211986 0.62459,-2.32817211 3.5763,-0.831971 5.3084,-1.427909 0.95852,-0.3258 2.13322,-0.59446311 3.13452,-0.82661711 a 35.14,35.14 0 0 1 9.79831,-0.613124 c 0.89722,0.07061 0.35067,0.769888 0.64066,1.16385411 0.28998,0.393966 1.16967,-0.45964611 1.36711,0.217934 0.19745,0.677581 -1.21268,0.496384 -1.25067,0.724106 -0.11219,1.425592 -2.54213,1.966609 -2.84619,3.026019 -0.30406,1.059409 -0.61037,2.529909 0.62968,3.470101 a 2.53,2.53 0 0 1 0.72859,3.4879159 c -0.38021,0.752489 -0.17884,1.380223 -0.33189,2.050281 -0.31158,1.4099 1.09099,2.834335 -0.33659,4.276776 -0.27355,0.289429 -1.59584,2.051114 1.24482,2.154307 0.0797,0.0063 0.21761,0.548766 0.11824,0.791719 a 20,20 0 0 0 -1.03429,3.710287 c -0.3899,1.895251 -0.78364,2.054851 0.91832,3.753623 0.28865,0.28352 0.34574,0.960085 0.09,1.150608 -1.24541,0.784705 -0.37961,2.146834 -1.81051,2.866787 -0.0598,-0.0047 -0.0768,0.08423 -0.11986,0.120968 -1.08244,1.008181 1.79574,1.144421 0.92972,2.079355 -0.86602,0.934935 -0.91388,1.543055 0.5808,2.051895 0.34186,0.117183 0.57595,0.456596 0.41174,0.503858 -2.1665,0.762369 0.0853,2.484354 -1.6648,3.309583 -0.15582,0.06799 -0.13242,0.280476 -0.21397,0.424521 2.5036,0.307378 0.86511,1.75328 1.57154,2.591289 0.27632,0.312644 0.27069,0.893995 -0.62331,1.164687 a 0.75,0.75 0 0 0 -0.53256,1.031395 c 0.44035,1.669697 0.91532,3.281933 0.33545,5.041862 -0.12973,0.501366 0.67616,1.477605 0.99536,2.265077 0.83293,2.162016 0.0493,4.216867 -0.28651,6.316994 a 10.45,10.45 0 0 0 0.5136,4.05279 c 0.18356,0.726642 0.82357,1.388898 -0.81913,1.741099 -0.55089,0.117139 -0.28656,0.709704 -0.21747,1.106348 0.67172,2.680967 1.96444,5.501087 1.17675,8.11735 -0.60083,1.898713 1.01206,4.092019 -1.38769,5.778937 a 1.24,1.24 0 0 0 0.63558,1.865619 c 1.05415,0.243458 0.87166,0.650394 1.02812,1.084007 0.42997,1.036933 0.19201,2.021303 -1.30005,2.626093 -0.65395,0.27956 -1.3378,0.55676 0.0217,0.744 0.72304,0.11709 0.71183,0.38704 0.72424,0.7391 0.14086,1.01418 -1.38516,2.17804 0.4945,3.14851 a 0.53,0.53 0 0 1 -0.36734,0.84378 c -2.39385,0.0824 -1.82957,1.06975 -1.70786,2.07239 a 1.89,1.89 0 0 1 -0.68528,1.95225 c -0.61689,0.57337 -0.63341,1.67547 0.64047,2.56817 a 2.48,2.48 0 0 1 0.78001,3.471909 3.05,3.05 0 0 0 -0.65358,1.80428 c 0.0421,1.75873 -1.17733,3.48838 -0.32454,5.27079 0.18267,0.35542 -2.15699,1.02392 -2.72029,0.789 -1.533,-0.53192 -3.57917,-0.15129 -3.86338,0.52851 -0.48899,1.11507 -1.3246,0.89884 -2.38235,0.95603 -2.60085,0.0361 -5.15711,0.0154 -7.776,0.28077 -2.80069,0.28112 -5.64782,-0.50468 -8.52198,-0.30959 -1.69365,0.10745 -3.41384,0.0423 -4.76914,0.94875 -0.12591,0.0703 -1.14784,0.69207 -1.84979,-0.0754 -0.44848,-0.54687 -5.06434,-0.39857 -5.80824,0.004 -2.10054,1.19888 -2.41093,1.06412 -5.56419,0.3445 -0.68002,-0.15383 -3.03778,-0.52998 -3.72426,0.80026 a 1.54,1.54 0 0 1 -1.54056,0.71132 26.66,26.66 0 0 0 -3.95499,0.29059 c -0.91975,0.0881 -1.95096,0.31791 -2.8841,-0.69843 -0.93313,-1.01635 -3.00801,-0.0161 -4.42802,0.18314 -1.72457,0.24545 -2.51707,0.37367 -2.4862,-1.03826 -0.002,-0.74243 -0.94043,-0.79624 -1.87305,-0.79942 -8.62684,0.003 -17.28281,-0.006 -25.90729,-0.0328 -0.68788,-0.0541 -1.72467,-0.13573 -1.59567,0.6468 0.1758,1.20752 -1.08715,1.068 -2.08799,1.03938 -11.41327,-0.40673 -22.8288,-0.40236 -34.21641,-1.00769 -0.99692,-0.0785 -2.37668,-0.51807 -3.06921,0.76154 -0.25698,0.46126 -2.35859,0.52657 -3.13369,-0.0761 -1.57172,-1.18698 -3.08537,-0.94499 -4.74533,-0.37347 a 1,1 0 0 1 -0.82845,0.0752 c -2.92014,-1.1326 -2.875,-1.06886 -6.11203,0.0406 -1.02987,0.34025 -2.67155,0.5521 -3.46456,-0.33285 a 2,2 0 0 0 -2.32079,-0.46351 c -1.94943,1.19072 -4.21262,0.25025 -6.21421,0.57421 -1.37251,0.23303 -0.66867,-0.93535 -1.72305,-1.04843 -1.36029,-0.17727 -2.05896,0.67053 -3.12354,0.68705 -4.51672,0.0357 -9.02953,0.0216 -13.53684,-0.0623 -0.99692,-0.0785 -2.28105,0.0512 -3.16692,-0.80094 -0.64237,-0.63235 -1.04792,0.56954 -1.9307,0.57028 -3.00409,-0.0659 -5.98579,0.22104 -8.9081,-0.11929 a 58.56,58.56 0 0 0 -11.0265,-0.0954 c -1.63227,0.0922 -3.40087,0.51476 -5.16722,0.52621 -1.00241,-0.009 -2.01972,0.17207 -2.56351,-0.69327 -0.28213,-0.49366 -1.33227,-0.40578 -1.3259,-0.10435 0.10298,1.62308 -1.75775,0.79454 -2.34515,0.73828 a 67.57,67.57 0 0 0 -8.4047,-0.27026 c -0.52837,-0.0416 -1.15015,-0.17077 -1.58658,0.27637 -0.43643,0.44714 -1.05655,0.6792 -1.31593,-0.10356 0.006,-0.0798 -0.64855,-0.17142 -0.83741,-0.0659 -2.82718,1.38244 -5.9774,0.24176 -8.9339,0.59088 -0.4764,0.0628 -1.00476,0.0212 -1.11664,-0.46906 -0.11746,-0.80169 -1.37012,-0.68962 -1.73708,-0.48779 -2.09348,1.10916 -4.45839,0.44156 -6.69822,0.60633 -0.93969,0.0865 -2.05892,-0.22223 -2.52146,0.68428 a 1,1 0 0 1 -0.56557,0.17617 c -3.39954,-1.54148 -6.91754,0.58907 -10.34075,-0.14177 a 0.8,0.8 0 0 0 -1.04321,0.50972 c -0.28209,0.78028 -0.84069,0.48554 -1.29701,0.0384 -0.92944,-0.93581 -1.20544,-0.99765 -1.62498,-0.12789 -0.41953,0.86977 -0.98025,0.47456 -1.72715,0.40574 a 64.71,64.71 0 0 0 -13.24774,-0.0395 42,42 0 0 1 -9.06092,0.42039 54.78,54.78 0 0 0 -10.5724,-0.1299 67.56,67.56 0 0 1 -8.70987,0.54832 14.25,14.25 0 0 1 -4.462489,-0.27096 2.6,2.6 0 0 0 -1.63619,0.14206 c -2.133492,1.6176 -4.853693,0.6211 -7.290555,0.74028 -1.410592,0.0796 -2.847354,-0.65542 -4.106883,0.30873 a 1.06,1.06 0 0 1 -1.156424,-0.091 c -0.616937,-0.70056 -1.11618,-0.72982 -1.765559,10e-4 a 1.31,1.31 0 0 1 -0.915271,0.15868 c -2.804108,-0.82254 -5.573597,0.46413 -8.366074,0.004 -2.554001,-0.43172 -4.917112,-1.24965 -7.822202,-0.91655 a 149.28,149.28 0 0 1 -18.444118,1.36711 c -3.515976,1.84984 -7.879429,1.08513 -11.834651,1.5061 -3.955221,0.42098 -8.26315,0.35277 -12.406541,0.4881 a 13.28,13.28 0 0 1 -4.87239,-1.81789 c -1.125133,-0.87096 -2.938969,-0.89334 -4.444083,-1.1422 A 3.28,3.28 0 0 1 9.1458785,113.9353"
     id="path4588"
     inkscape:connector-curvature="0"
     style="fill:#ffffff" />
</svg>
