<svg id="Ebene_1" data-name="Ebene 1" xmlns="http://www.w3.org/2000/svg" viewBox="0 0 191.57 152.32"><defs><style>.cls-1{fill:#fff;opacity:0.2;}</style></defs><title>Zeichenfläche 15</title><path class="cls-1" d="M103.66.65C101,.38,98.44.2,95.86.09,94.89.05,93.92,0,93,0h0C44.81-.76,4.36,27.41.3,66.34-2.17,89.93,11,105.41,29.35,123.24c.28.28.57.54.85.81h0c12.88,12.33,24.32,19.64,37.32,23.81a100,100,0,0,0,20.36,4.08c12.78,1.34,26.28-1.11,37.8-3.56,16.64-3.54,31.2-10.32,42.38-19.72h0c13-10.92,21.41-25.38,23.18-42.4C195.6,44.48,156.4,6.16,103.66.65Zm47.55,111.17c-8.43,8.17-20.09,14-33.67,16.9-8.38,1.78-18.21,3.57-27.51,2.6a74.13,74.13,0,0,1-13.78-2.67c-10.11-3-18.85-8.56-28.82-18.23l-1.82-1.77-3.85,3.85,3.85-3.85C33.19,96.4,24.58,85.39,26.29,69,29.22,40.89,58.25,20.5,93,20.75h0c1,0,1.93,0,2.91.06,1.87.08,3.76.2,5.66.4,38.38,4,66.91,31.89,63.74,62.3a45.52,45.52,0,0,1-14,28.31l4.21,4.21Z"/></svg>