<svg id="Ebene_1" data-name="Ebene 1" xmlns="http://www.w3.org/2000/svg" viewBox="0 0 99.54 85.67"><defs><style>.cls-1{fill:#0072bb;}.cls-2{fill:#fff;}</style></defs><title>Zeichenfläche 2</title><path class="cls-1" d="M.15,37.31C2.42,13.81,26.47-2.72,53.87.37S101.64,25,99.37,48.52C97.66,66.32,84,79.16,65.3,83.46c-6,1.37-13,2.75-19.64,2C33.74,84.12,25.38,80,15.25,69.32c-9.56-10-16.38-18.74-15.1-32"/><path class="cls-2" d="M60.82,80.75a4.65,4.65,0,0,0-.45-1.25,2.87,2.87,0,0,1,.8-3.58c.86-.58.93-1.61,1.26-2.49a.13.13,0,0,0,0-.12c-.68-.69,0-1.19.23-1.76.13-.38.23-.78.37-1.16.52-1.46.95-3,1.59-4.36,1.09-2.36,2.31-4.66,3.48-7a2.5,2.5,0,0,1,.23-.39l2.41-2.91a2.27,2.27,0,0,0,.8-1.56.47.47,0,0,1,.15-.34,6.48,6.48,0,0,0,1.8-3.15c.36-1.1.84-2.16,1.2-3.27.49-1.53,1-3,1.57-4.58.1-.3.06-.64.14-1,.28-1.15.58-2.3.86-3.46a8,8,0,0,1,.17-1A13.7,13.7,0,0,0,78,32.59c0-1.35-.11-2.69-.18-4,0-.63-.48-.83-1-.93a1,1,0,0,0-1.13.65c-1.89,3.52-2.89,7.36-4.27,11.07a22.84,22.84,0,0,1-2.71,5.55c-.67.92-1.2,1-2.18.4a6.14,6.14,0,0,1-2.89-5,.83.83,0,0,1,.48-.63c.5-.15.59-.45.59-.9,0-2,0-4,.19-6,.13-1.54.61-3,.73-4.59.15-2.06.18-4.13.13-6.2s-.25-4.3-.43-6.44c0-.33.07-.85-.49-.93a1.17,1.17,0,0,0-1.32.69,14.08,14.08,0,0,0-1.39,5c-.32,3-.52,6.06-1,9.06a50.15,50.15,0,0,1-3.27,11.93,2.27,2.27,0,0,1-.45.77,1.17,1.17,0,0,1-1.63.12c-.24-.15-.45-.34-.68-.49A2.19,2.19,0,0,1,54,39.31a9.41,9.41,0,0,0,.14-1.67,8.09,8.09,0,0,0-.2-2,11.31,11.31,0,0,1-.1-4.3A66,66,0,0,0,54,21.23c-.1-1.78-.16-3.57-.3-5.35a2.44,2.44,0,0,0-.83-2.09,1.19,1.19,0,0,0-.92-.21,1.1,1.1,0,0,0-.5.79c-.24,2-.41,4-.65,6-.14,1.16-.45,2.29-.55,3.45-.21,2.55-.36,5.11-.48,7.66-.07,1.53.1,3.08-.11,4.58a46.33,46.33,0,0,1-1.26,5.67A1.75,1.75,0,0,1,45.8,43a10.55,10.55,0,0,1-2.74-1.55,3.13,3.13,0,0,1-.86-1.94c-.21-1.88-.29-3.77-.37-5.66s-.13-3.53-.11-5.29a23.48,23.48,0,0,0-1.61-9c-.09-.22-.11-.47-.19-.68s-.23-.46-.34-.69c-.29.19-.74.33-.83.59A13.24,13.24,0,0,0,38.29,21c-.3,2.08-.58,4.17-.82,6.26-.13,1.1-.17,2.22-.24,3.33-.2,3.51-.4,7-.62,10.52,0,.57.27.8.71,1s.79.3.84.54a4.64,4.64,0,0,1,.09,1.89,24.13,24.13,0,0,1-.74,2.57.61.61,0,0,0,.05.44,1.45,1.45,0,0,1-.27,1.73,14.69,14.69,0,0,1-1,1.31c-.59.66-1.45.45-2.18.68-.16.05-.36,0-.5.09A7.05,7.05,0,0,1,29,52a12.12,12.12,0,0,1-6.33-2.39,2.61,2.61,0,0,1-.44-.37,8.54,8.54,0,0,0-4.06-2.55,8.5,8.5,0,0,0-1.17-.2c.09.35.13.56.2.75A28.47,28.47,0,0,0,20.89,54a36.36,36.36,0,0,0,3.63,3.83c.68.7,1.4,1.38,2.09,2.08l6.46,6.43c.89.9,1.78,1.8,2.6,2.76.51.6.38.93-.12,1.49a2.3,2.3,0,0,1-2,1A4.38,4.38,0,0,1,31.29,71,68,68,0,0,1,17.16,58.73c-1.58-1.81-2.75-4-4.16-5.92a12,12,0,0,1-1.95-5.68,6.91,6.91,0,0,0-.27-1c.19-.71.37-1.42.55-2.13a5.68,5.68,0,0,0,2.06-2.88,1.17,1.17,0,0,1,1-.78,5,5,0,0,1,4.32,1,5,5,0,0,0,1.8,1.09,10.43,10.43,0,0,1,3.09.94c.71.39,1.43.75,2.17,1.1a11.61,11.61,0,0,0,2.33,1,9,9,0,0,0,2.38,0,1.68,1.68,0,0,0,1.78-1.87c0-1-.26-2.09-.26-3.14q0-4,.07-8.06c0-2.15.15-4.3.33-6.44.22-2.46.45-4.93.87-7.36s1.29-4.92,3.62-6.52a6.15,6.15,0,0,1,3.94-.89,2.79,2.79,0,0,1,2.3,1.54,3.77,3.77,0,0,1,.52,1.2c.3,1.32.49,2.67.84,4s1.17,2.24,1.12,3.57c0,.11.14.22.21.34A1.14,1.14,0,0,0,46,21.2c0-.71,0-1.42.08-2.13.17-2.41.81-4.75,1.11-7.13a6.81,6.81,0,0,1,2.91-4.88A2.87,2.87,0,0,1,54.2,8.15c.66,1.47,1.35,2.94,2,4.41.14.31.22.65.35,1,.37.85.76,1.69,1.14,2.54l.25,0c.15-.27.31-.54.45-.81.72-1.4,1.38-2.82,2.16-4.18A3.58,3.58,0,0,1,64,9.36c1,0,2,.15,3.08.23l.62.17a4.73,4.73,0,0,1,2.1,2.91,19,19,0,0,1,.88,3.9c.2,2.44.18,4.9.27,7.35a4.55,4.55,0,0,0,.11.74l.23,0c.32-.69.67-1.37,1-2.07a12.26,12.26,0,0,1,2.89-4.31,4.1,4.1,0,0,1,3.28-1.4c1.24.16,2.5.33,3.07,1.66a8.66,8.66,0,0,1,.87,2.74q.34,5.5.46,11a37.87,37.87,0,0,1-.3,4.1c-.07.72-.18,1.44-.25,2.16,0,.5-.06,1-.09,1.52l-1.59,6.14L78.87,51c-.82,2.28-1.59,4.59-2.51,6.83-.72,1.8-1.76,3.47-2.42,5.28a55.33,55.33,0,0,1-2.72,6.33,37.59,37.59,0,0,1-8,10.69,2.78,2.78,0,0,1-1.62.84l-.75-.19"/></svg>